<svg id="visual" viewBox="0 0 960 540" width="960" height="540" xmlns="http://www.w3.org/2000/svg" xmlns:xlink="http://www.w3.org/1999/xlink" version="1.1"><rect x="0" y="0" width="960" height="540" fill="#151519"></rect><path d="M0 135L17.8 144.3C35.7 153.7 71.3 172.3 106.8 183.3C142.3 194.3 177.7 197.7 213.2 188C248.7 178.3 284.3 155.7 320 143.8C355.7 132 391.3 131 426.8 147.2C462.3 163.3 497.7 196.7 533.2 207.7C568.7 218.7 604.3 207.3 640 194.7C675.7 182 711.3 168 746.8 159.7C782.3 151.3 817.7 148.7 853.2 164.5C888.7 180.3 924.3 214.7 942.2 231.8L960 249L960 0L942.2 0C924.3 0 888.7 0 853.2 0C817.7 0 782.3 0 746.8 0C711.3 0 675.7 0 640 0C604.3 0 568.7 0 533.2 0C497.7 0 462.3 0 426.8 0C391.3 0 355.7 0 320 0C284.3 0 248.7 0 213.2 0C177.7 0 142.3 0 106.8 0C71.3 0 35.7 0 17.8 0L0 0Z" fill="#4275ff"></path><path d="M0 184L17.8 172C35.7 160 71.3 136 106.8 123.2C142.3 110.3 177.7 108.7 213.2 109C248.7 109.3 284.3 111.7 320 122.3C355.7 133 391.3 152 426.8 150.2C462.3 148.3 497.7 125.7 533.2 117.7C568.7 109.7 604.3 116.3 640 120.5C675.7 124.7 711.3 126.3 746.8 136.8C782.3 147.3 817.7 166.7 853.2 176.5C888.7 186.3 924.3 186.7 942.2 186.8L960 187L960 0L942.2 0C924.3 0 888.7 0 853.2 0C817.7 0 782.3 0 746.8 0C711.3 0 675.7 0 640 0C604.3 0 568.7 0 533.2 0C497.7 0 462.3 0 426.8 0C391.3 0 355.7 0 320 0C284.3 0 248.7 0 213.2 0C177.7 0 142.3 0 106.8 0C71.3 0 35.7 0 17.8 0L0 0Z" fill="#5582ff"></path><path d="M0 66L17.8 67.5C35.7 69 71.3 72 106.8 74.8C142.3 77.7 177.7 80.3 213.2 85.3C248.7 90.3 284.3 97.7 320 99.3C355.7 101 391.3 97 426.8 86.8C462.3 76.7 497.7 60.3 533.2 60.7C568.7 61 604.3 78 640 89.2C675.7 100.3 711.3 105.7 746.8 100.7C782.3 95.7 817.7 80.3 853.2 74C888.7 67.7 924.3 70.3 942.2 71.7L960 73L960 0L942.2 0C924.3 0 888.7 0 853.2 0C817.7 0 782.3 0 746.8 0C711.3 0 675.7 0 640 0C604.3 0 568.7 0 533.2 0C497.7 0 462.3 0 426.8 0C391.3 0 355.7 0 320 0C284.3 0 248.7 0 213.2 0C177.7 0 142.3 0 106.8 0C71.3 0 35.7 0 17.8 0L0 0Z" fill="#668fff"></path></svg>