<svg width="1289" height="1786" viewBox="0 0 1289 1786" fill="none" xmlns="http://www.w3.org/2000/svg">
<path fill-rule="evenodd" clip-rule="evenodd" d="M1261.82 988.5C1246.06 990.134 1230.29 991.765 1214.53 993.398C1139.04 999.486 1063.58 1012.2 988.663 1019.83C986.797 1016.62 983.146 1017.15 980.93 1019.38C973.455 1018.69 965.077 1012.66 958.305 1018.93C958.085 1018.9 957.865 1018.86 957.643 1018.84C945.587 994.414 937.253 968.365 929.165 942.281C924.002 926.244 917.056 910.72 904.221 899.953C882.315 883.905 832.124 851.362 806.402 852.73C805.976 847.869 803.829 842.859 800.304 839.623C808.073 825.644 777.009 816.523 774.818 818.143C776.222 771.439 755.406 730.88 709.507 721.579C668.387 712.536 609.901 711.017 587.786 756.371C585.355 756.082 560.506 755.945 558.101 756.229C554.363 751.233 513.311 798.582 530.136 815.066C379.709 885.297 294.175 876.917 252.539 1074.35C246.911 1092.9 246.501 1113.2 240.557 1131.33C219.411 1183.44 202.259 1238.94 197.99 1295.64C187.681 1298.43 186.495 1317.61 198.437 1320.39C202.998 1321.45 206.813 1322.9 210.139 1325.65C207.539 1372.12 218.187 1478.27 224.897 1477.94C238.578 1523.89 299.602 1536.86 342.804 1520.71C335.357 1535.5 342.804 1544.8 342.804 1552.7C498.26 1558.91 668.234 1555.33 823.646 1563.85C843.526 1563.55 864.435 1569 884.043 1565.86C896.002 1562.84 896.022 1542.99 883.892 1540.54L936.892 1528.39C935.708 1527.92 958.739 1511.75 976.146 1481.54C992.348 1447.74 981.321 1406.94 988.663 1370.18C1046 1365.23 1104.29 1363.11 1161 1352.86C1168.74 1377.28 1202.21 1348.08 1212.85 1336.33C1212.84 1336.31 1212.82 1336.3 1212.81 1336.28C1217.96 1334.79 1222.09 1329.7 1222.23 1323.67C1225.84 1318.22 1226.6 1310.55 1223.13 1305.28C1239 1208.62 1263.2 1109.93 1271.95 1012.36C1275.04 1011.64 1277.95 1010.21 1280.42 1008L1280.22 1007.79C1284.4 1002.87 1285.21 994.377 1278.24 990.196C1272.62 986.819 1267.92 987.867 1261.82 988.5Z" fill="#EDB98A"/>
<path fill-rule="evenodd" clip-rule="evenodd" d="M662.324 1350.28L674.467 1358.43L773.815 1392.22L834.528 1400.37L884.202 1392.22V1481.93L894.137 1565.81C889.722 1574.35 847.775 1574.35 768.296 1565.81C717.63 1560.36 532.46 1557.72 490.301 1556.56L487.912 1556.49C438.37 1554.98 389.432 1554.98 341.097 1556.49V1525.03L479.081 1452.8L602.715 1379.4L662.324 1350.28ZM591.929 749.039L601.053 756.229L581.132 790.773L678.176 873.619V939.792L708.9 970.461L726.461 939.792L751.207 905.061L768.793 848.762L762.805 811.671L774.846 810.474C774.904 813.009 774.895 815.566 774.817 818.143C777.008 816.523 808.073 825.644 800.304 839.623C803.829 842.859 805.976 847.869 806.402 852.73C832.124 851.362 882.315 883.905 904.22 899.953C917.056 910.72 924.002 926.244 929.164 942.281L930.38 946.193L931.635 950.209L932.899 954.222C939.885 976.283 947.428 998.144 957.643 1018.84C957.865 1018.86 958.085 1018.9 958.305 1018.93C965.076 1012.66 973.454 1018.69 980.93 1019.38C983.095 1017.2 986.628 1016.65 988.529 1019.61L988.662 1019.83L895.527 1039.19L834.085 1266.66L780.577 1220.82L751.856 1225.33L676.01 1254.2L587.797 1278.38L386.417 1336.98H360.772L211.545 1298.94L198.097 1294.26C202.538 1238.03 219.582 1183.02 240.556 1131.33C246.5 1113.2 246.91 1092.9 252.539 1074.35C294.175 876.917 379.708 885.297 530.136 815.066C513.31 798.582 554.363 751.233 558.101 756.229L558.337 756.208L558.846 756.179L559.502 756.155C565.371 755.975 585.604 756.111 587.786 756.371C589.051 753.776 590.435 751.334 591.929 749.039Z" fill="#8FA7DF"/>
<path fill-rule="evenodd" clip-rule="evenodd" d="M1276.7 995.407L1273.93 1011.72C1273.27 1011.95 1272.6 1012.14 1271.92 1012.3C1271.05 1022.03 1270.02 1031.77 1268.87 1041.51L1251.67 1142.68C1248.7 1160.58 1245.89 1178.52 1243.09 1196.46L1239.39 1215.74L1237.09 1227.71C1232.14 1253.66 1227.33 1279.51 1223.11 1305.23C1223.74 1306.19 1224.24 1307.24 1224.6 1308.35L1224.27 1309.8L1224.05 1310.76L1223.81 1311.72C1220.48 1325.23 1214.69 1338.34 1201.03 1342.32C1190.72 1345.31 1179.42 1345.59 1168.78 1346.77L1167.6 1346.9L981.42 1369C958.924 1371.67 936.439 1374.42 913.955 1377.2L894.465 1379.61C867.298 1382.93 839.975 1385.55 813.209 1391.56C812.225 1391.78 811.411 1392.19 810.746 1392.74C816.136 1371.2 821.296 1349.7 825.972 1327.95C831.235 1303.47 836.23 1278.94 841.86 1254.54C853.201 1205.4 865.914 1156.59 879.832 1108.19C882.753 1098.03 885.741 1087.89 888.794 1077.78L890.937 1070.71L892.586 1065.07C895.138 1056.48 898.296 1047.65 905.78 1042.91C914.537 1037.37 926.48 1036.45 936.412 1034.53L943.138 1033.2C953.202 1031.22 963.278 1029.31 973.366 1027.48C1021.67 1018.71 1070.24 1011.68 1119 1006.39C1169.73 1000.89 1220.64 997.322 1271.61 995.576L1276.7 995.407ZM814.604 1332.74L815.079 1332.78L808.124 1391.45C807.013 1390.63 805.601 1390.12 803.878 1390.13C781.067 1390.2 759.2 1382.51 738.05 1374.05L734.829 1372.75L725.849 1369.11C716.722 1365.42 707.545 1361.81 698.197 1358.81L694.419 1357.61L692.498 1357.01C685.421 1354.83 677.976 1352.85 670.614 1352.36L669.61 1352.3L671.754 1351.11C672.068 1350.94 672.342 1350.74 672.586 1350.53C676.639 1350.85 680.699 1350.76 684.973 1349.95C693.011 1348.42 700.828 1345.47 708.005 1341.36L711.211 1339.53L712.523 1338.79L713.39 1338.32L714.252 1337.86C720.417 1334.62 726.311 1332.59 734.094 1334.31C742.93 1336.28 750.673 1341.3 758.637 1345.55L760.051 1346.29L761.001 1346.78L761.97 1347.26L762.951 1347.73C773.721 1352.85 790.863 1358.37 794.993 1342.91C796.652 1336.7 795.353 1330.89 792.474 1325.79C797.838 1325.3 807.423 1331.97 814.604 1332.74Z" fill="white"/>
<path fill-rule="evenodd" clip-rule="evenodd" d="M590.652 745.837C595.335 733.415 611.168 738.244 609.403 751.294C608.347 759.112 604.29 767.368 600.646 774.22C597.679 779.797 594.294 785.24 589.706 789.42C597.874 797.464 606.353 805.213 615.047 812.572C624.534 820.6 634.51 828 644.821 834.802C653.863 840.767 663.313 846.051 671.836 852.857C679.761 859.185 686.98 866.795 690.654 876.729C694.567 887.308 692.866 898.233 689.985 908.805L689.654 910C686.71 920.474 681.613 933.099 688.68 942.967C692.277 947.991 697.508 951.549 702.024 955.565C706.037 959.134 709.805 963.016 713.26 967.186C720.794 976.276 726.921 986.503 730.788 997.9L731.134 998.935C734.448 1009.02 736.871 1021.38 732.392 1031.29C731.107 1034.13 726.963 1033.2 726.244 1030.44C724.617 1024.18 724.702 1017.62 723.337 1011.27C721.918 1004.66 719.555 998.389 716.47 992.457C710.5 980.98 702.416 971.177 692.864 962.889L690.005 960.435C682.554 953.981 675.707 947.135 674.195 936.453C672.577 925.026 676.915 914.14 679.704 903.323C681.648 895.786 682.283 888.56 680.182 881.748C677.616 886.169 674.114 890.366 671.345 894.109C665.829 901.566 660.261 908.978 654.707 916.404C649.013 924.019 643.46 931.754 638.171 939.689C635.806 943.239 633.465 946.809 631.133 950.384C629.379 953.07 626.933 955.755 625.021 958.495C625.485 959.96 625.45 961.65 624.608 962.85C614.469 977.308 600.044 947.14 596.282 939.519C588.622 923.997 582.92 907.507 575.234 891.989C567.269 875.902 558.2 860.244 548.092 845.557C541.977 836.674 535.125 828.33 529.531 819.165C516.354 831.775 499.015 840.228 483.088 847.894C465.589 856.316 447.409 863.196 429.468 870.501L424.168 872.674C393.254 885.407 361.585 899.396 335.89 922.013C305.696 948.591 287.833 985.634 274.534 1023.99C259.226 1068.15 246.561 1113.51 234.755 1158.83C228.714 1182.02 222.981 1205.32 217.592 1228.69C212.843 1249.27 208.907 1270.07 203.41 1290.44C214.559 1290.03 227.274 1294.58 236.793 1295.9C280.174 1301.89 322.971 1311.44 363.928 1327.98C368.987 1330.03 370.451 1335.36 369.349 1339.68C372.267 1338.81 375.182 1337.93 378.1 1337.07C374.903 1331.9 376.429 1322.66 376.68 1316.93L376.696 1316.53C376.954 1308.9 377.739 1301.26 378.248 1293.64C379.217 1279.11 380.478 1264.69 382.156 1250.25L382.584 1246.63C384.485 1230.92 385.89 1215.11 387.964 1199.43L388.209 1197.63C387.214 1193.62 386.056 1189.65 384.841 1185.71C381.602 1175.19 377.031 1165.3 373.025 1155.11C372.553 1153.91 374.171 1153.22 374.927 1153.94C381.712 1160.38 387.101 1168.56 391.43 1177.1C391.505 1176.7 391.571 1176.3 391.65 1175.89L392.144 1173.33C393.362 1167.07 394.844 1160.48 398.482 1155.41C398.869 1154.87 399.635 1154.75 400.002 1155.41C403.483 1161.62 403.873 1169.5 404.408 1176.57C405.014 1184.58 405.091 1192.68 404.983 1200.71C404.775 1216.39 403.727 1232.12 402.893 1247.78C402.074 1263.17 400.466 1278.36 398.394 1293.6L398 1296.46C396.987 1303.71 396.158 1311.05 394.822 1318.26L394.445 1320.22C393.731 1323.79 393.291 1328.82 391.869 1333.01C428.45 1322.24 465.086 1311.72 501.792 1301.38C528.321 1293.91 554.878 1286.55 581.424 1279.14C582.825 1276.47 584.569 1273.99 586.746 1271.76C593.918 1264.43 603.422 1261.16 612.14 1266.8C612.848 1267.26 612.908 1268.44 612.14 1268.88C610.469 1269.84 608.796 1270.83 607.152 1271.86L623.092 1267.3C635.006 1263.9 647.063 1259.64 659.257 1257.26C681.718 1245.57 705.875 1237.1 729.535 1228.73L732.324 1227.73C744.438 1223.38 756.969 1218.5 769.486 1216.08C778.649 1214.31 789.405 1216.44 793.09 1226.35C797.755 1229.6 802.144 1233.41 806.379 1237.16C809.441 1239.87 812.377 1242.75 815.362 1245.56L815.912 1246.07C818.352 1248.3 820.285 1249.8 820.884 1253.35C821.193 1255.19 820.087 1257.67 817.94 1257.43C811.371 1256.69 806.029 1248.65 801.574 1243.85C798.132 1240.14 794.663 1236.31 791.521 1232.23C789.69 1233.28 787.18 1233.1 786.014 1230.77C779.969 1218.69 763.41 1227.06 754.248 1229.92L741.123 1234.02C734.561 1236.07 728.001 1238.14 721.453 1240.24C703.455 1246 685.546 1252.46 667.385 1257.76C669.01 1259.64 668.786 1263 665.7 1264.27C651.484 1270.16 635.888 1273.2 621.12 1277.24C611.795 1279.79 602.476 1282.36 593.161 1284.94C591.563 1287.68 590.414 1290.77 589.931 1294.36C588.153 1307.59 591.582 1322.84 594.921 1335.63L595.425 1337.54C598.17 1347.82 602.209 1360.43 610.615 1366.92C612.667 1368.51 615.28 1369.61 617.914 1369.86C634.369 1360.92 650.824 1351.98 667.288 1343.06C670.338 1341.4 673.156 1343.64 673.841 1346.3C679.646 1345.3 685.438 1343.71 690.713 1341.82C699.577 1338.65 706.499 1332.59 714.809 1328.4C730.888 1320.29 747.308 1330.25 761.704 1337.82L765.022 1339.54C771.478 1342.85 784.909 1349.2 788.006 1340.15C791.002 1331.41 781.53 1322.06 775.412 1318.12C768.12 1313.43 759.629 1310.92 751.388 1308.82C746.682 1307.63 741.919 1306.65 737.127 1305.94C731.691 1305.13 726.077 1305.26 720.844 1303.4C718.243 1302.47 717.843 1298.11 720.844 1297.39C728.9 1295.46 738.515 1297.57 746.922 1299.73L751.316 1300.87C759.786 1303.06 768.338 1305.82 776.053 1310.19C781.662 1313.37 787.584 1318.21 791.452 1324.13C794.811 1320.83 798.991 1320.95 803.346 1322.17L805.71 1322.86C809.613 1324 812.777 1324.79 816.575 1324C817.082 1321.08 817.597 1318.16 818.148 1315.25C823.56 1286.57 829.496 1258 836.045 1229.59C847.342 1180.58 860.414 1132.11 875.151 1084.13L876.63 1079.33C880.029 1068.36 882.764 1056.41 888.244 1046.32C893.426 1036.79 901.73 1031.3 911.595 1028.39C922.79 1025.09 934.554 1023.37 945.975 1021.14C948.523 1020.64 951.077 1020.17 953.627 1019.68C951.472 1015.58 949.864 1010.91 948.415 1007.34L948.161 1006.72C945.048 999.228 942.252 991.604 939.552 983.938L937.532 978.176C932.657 964.299 927.625 950.651 920.77 937.672C913.556 924.013 903.984 912.846 892.052 903.604C867.725 884.759 838.403 875.146 814.807 855.006C813.84 854.181 815.08 852.77 816.061 853.292C831.994 861.741 849.193 867.486 865.764 874.364L869.033 875.725C882.131 881.205 895.433 887.171 906.77 896.043C919.409 905.937 929.364 918.223 936.846 932.834C944.22 947.236 948.937 963.356 954.139 978.74L955.531 982.838C957.629 988.985 959.797 995.113 962.28 1001.09C964.252 1005.84 967.931 1011.26 969.604 1016.69C974.179 1015.85 978.754 1015.01 983.333 1014.2C1082.54 996.723 1182.85 986.452 1283.38 983.448C1287.31 983.33 1289.35 987.291 1288.77 990.912C1279.12 1051.12 1270.54 1111.54 1261.14 1171.79C1257.03 1198.09 1252.84 1224.37 1248.56 1250.64C1246.39 1263.94 1243.88 1277.2 1241.82 1290.53C1240.16 1301.29 1238.95 1312.14 1236.1 1322.65C1233.55 1332.08 1229.62 1341.16 1223.18 1348.36C1216.23 1356.11 1206.54 1359.86 1196.78 1361.63C1172.01 1366.13 1146.6 1367.97 1121.63 1370.97L988.67 1386.93C990.613 1405.57 990.758 1423.92 989.866 1442.78L989.358 1453.07C988.943 1461.35 988.446 1469.64 987.32 1477.84C985.907 1488.12 981.451 1496.82 974.889 1504.5C968.863 1511.55 961.542 1517.56 954.421 1523.33C947.029 1529.31 939.392 1535.09 930.701 1538.79L929.573 1539.27C921.949 1542.41 907.646 1547.27 897.225 1545.49C898.587 1552.7 901.223 1560.44 898.886 1567.57C897.802 1570.88 893.701 1572.53 891.189 1569.72C886.211 1564.13 885.823 1556.76 884.644 1549.48C883.418 1541.9 882.36 1534.3 881.421 1526.68C879.604 1511.94 878.19 1497.06 877.758 1482.2C877.314 1466.94 877.485 1451.65 878.265 1436.4C878.665 1428.57 879.162 1420.75 880.104 1412.97C880.506 1409.65 880.916 1406.33 881.385 1403.02C881.556 1401.81 881.746 1400.61 881.95 1399.41L870.017 1400.83C851.718 1402.99 833.411 1404.93 814.983 1405.24C812.801 1405.27 811.122 1404.22 810.024 1402.7C808.855 1404.71 806.82 1406.14 803.904 1406.13C778.17 1406.03 754.205 1397.15 730.798 1386.68C719 1381.41 707.385 1375.69 695.569 1370.46C684.54 1365.58 672.75 1362.09 661.987 1356.59L633.706 1372.25C633.498 1373.02 633.232 1373.74 632.95 1374.35C631.109 1378.32 627.478 1380.47 623.77 1382.09C620.211 1383.65 616.525 1384.14 612.934 1383.74C591.486 1395.6 570.032 1407.46 548.565 1419.28L527.092 1431.09C484.31 1454.6 441.697 1478.5 398.646 1501.45L395.477 1503.14C380.607 1511.01 364.639 1518.98 348.137 1524.94C347.844 1529.34 348.029 1533.63 348.379 1538.3L348.463 1539.31C348.955 1544.83 350.01 1551.74 345.819 1555.66C343.639 1557.7 339.745 1557.71 338.262 1554.63C335.572 1549.05 337.987 1540.25 338.839 1534.19C339.142 1532.03 339.511 1529.82 340.056 1527.66C321.138 1533.61 301.647 1536.49 282.395 1533.15C263.651 1529.91 249.134 1517.44 237.431 1502.2C225.08 1486.11 216.303 1467.37 211.594 1447.27C206.234 1424.41 205.884 1400.79 206.01 1377.37C206.144 1352.42 207.018 1327.36 209.893 1302.58C206.743 1301.8 203.251 1301.13 200.068 1301.36C198.492 1304.02 195.434 1305.14 192.671 1304.8C186.663 1311.79 201.903 1318.94 206.773 1320.73C208.464 1321.35 208.283 1324.25 206.333 1324.16L205.104 1324.1C197.579 1323.68 189.804 1322.32 185.379 1314.94C181.833 1309.02 182.899 1302.01 187.125 1297.19C189.917 1269.33 196.591 1242.2 202.802 1215.03C208.898 1188.36 215.677 1161.85 222.862 1135.48L226.083 1123.68C237.396 1082.34 249.221 1040.66 264.826 1000.96C272.618 981.131 281.595 961.672 293.763 944.386C305.105 928.273 318.496 914.484 333.889 902.708C362.584 880.752 396.255 867.486 429.338 854.847L430.819 854.281C447.963 847.736 465.065 841.113 482.014 834.021C497.003 827.75 511.364 819.798 526.283 813.433C525.798 812.504 525.33 811.565 524.88 810.616L524.604 810.86C524.557 810.9 524.508 810.938 524.458 810.974C522.958 812.072 520.749 811.533 519.513 810.301C516.022 806.825 517.203 802.965 519.534 799.36L519.837 798.901C522.687 794.687 525.229 790.232 527.86 785.866L529.507 783.135C533.923 775.84 538.563 768.496 544.45 762.467C547.177 759.673 550.162 757.583 553.324 756.026C553.054 755.422 555.425 754.188 556.097 754.809C566.117 750.939 577.645 751.75 588.569 752.817M982.236 1387.7L968.305 1389.38C952.979 1391.22 937.647 1393 922.313 1394.76L889.007 1398.58C888.922 1400.58 888.691 1402.54 888.649 1404.06C888.431 1411.86 888.269 1419.66 888.116 1427.47C887.808 1443.11 888.146 1458.77 889.121 1474.39C890.067 1489.51 891.313 1504.65 893.249 1519.67L893.645 1522.68L893.875 1524.26C895.454 1524.42 897.006 1525.21 898.297 1526.84C901.114 1530.39 911.315 1526.94 915.299 1525.44C921.85 1522.98 928.02 1518.82 933.712 1514.65C939.272 1510.58 944.278 1505.84 949.088 1500.84L953.024 1496.73C956.939 1492.62 960.859 1488.25 963.257 1483.08C966.511 1476.08 966.931 1467.48 967.885 1459.85C969.059 1450.47 970.458 1441.09 971.936 1431.75M577.827 1289.21L576.382 1289.61C523.892 1304.33 471.48 1319.49 418.828 1333.56C392.772 1340.52 366.593 1346.98 340.505 1353.81L336.281 1354.92C315.701 1360.41 294.873 1367.02 279.113 1382.78C278.531 1383.36 277.687 1382.46 278.235 1381.85C295.22 1362.76 319.377 1354.69 342.572 1347.68C346.859 1346.39 351.152 1345.12 355.441 1343.84C323.896 1331.97 291.854 1321.64 259.072 1314.28C250.631 1312.38 242.092 1310.99 233.657 1309.09C227.774 1307.76 222.03 1305.84 216.209 1304.25L211.631 1303.03L211.57 1318.3C211.494 1339.93 211.531 1361.54 212.576 1383.17L212.774 1387.17C213.994 1411.24 215.898 1435.81 223.99 1458.5C230.566 1476.94 241.047 1494.31 254.754 1507.74C261.69 1514.54 269.146 1519.83 278.364 1522.44C286.922 1524.86 295.889 1525.15 304.687 1524.5C346.887 1521.39 384.451 1497.2 421.109 1477.17C481.068 1444.4 541.034 1411.66 601.053 1379.02C599.431 1377.85 597.903 1376.5 596.513 1374.98C588.465 1366.21 584.219 1354.2 581.431 1342.57C578.463 1330.19 576.688 1316.92 576.481 1304.14M654.196 1391.67C654.726 1391.37 655.34 1391.74 655.364 1392.37C655.55 1397.21 653.016 1401.98 651.123 1406.34L650.923 1406.81C648.624 1412.21 646.106 1417.53 643.502 1422.77C638.297 1433.25 632.888 1443.61 627.243 1453.83C615.891 1474.38 603.276 1494.07 588.365 1511.96C584.997 1516.01 579.457 1510.82 581.619 1506.47C592.039 1485.49 604.187 1465.68 616.692 1446.04C622.952 1436.2 629.208 1426.36 635.53 1416.57C638.167 1412.49 640.838 1408.42 643.581 1404.41L645.236 1402.01M1276.73 995.465C1224.06 997.144 1171.45 1000.77 1119.02 1006.45C1070.27 1011.73 1021.69 1018.77 973.393 1027.54C963.305 1029.37 953.229 1031.27 943.165 1033.25L937.129 1034.45C927.064 1036.47 914.768 1037.3 905.806 1042.97C896.358 1048.95 893.805 1061.46 890.661 1071.77C886.965 1083.89 883.364 1096.05 879.859 1108.24C865.941 1156.64 853.228 1205.46 841.887 1254.6C836.257 1278.99 831.262 1303.52 825.999 1328C821.323 1349.76 816.163 1371.26 810.773 1392.79C811.437 1392.25 812.252 1391.83 813.236 1391.61C840.002 1385.6 867.325 1382.99 894.491 1379.67L897.12 1379.35C925.224 1375.86 953.327 1372.4 981.447 1369.06L1167.63 1346.96C1178.61 1345.66 1190.37 1345.48 1201.05 1342.37C1219.22 1337.08 1223.48 1315.65 1226.53 1298.58L1226.62 1298.06C1235.81 1246.48 1243.12 1194.45 1251.7 1142.74M815.105 1332.83C807.877 1332.33 797.984 1325.34 792.5 1325.85C795.379 1330.94 796.679 1336.76 795.019 1342.97C790.402 1360.25 769.52 1351.31 759.461 1346.03C751.214 1341.7 743.251 1336.4 734.121 1334.37C723.778 1332.08 716.77 1336.42 708.032 1341.42C700.855 1345.53 693.038 1348.48 685 1350.01C680.726 1350.82 676.665 1350.91 672.613 1350.59C672.369 1350.8 672.094 1351 671.781 1351.17L669.637 1352.36C679.33 1352.82 689.203 1355.98 698.224 1358.87C707.572 1361.87 716.748 1365.48 725.876 1369.17L734.856 1372.81C757.005 1381.76 779.933 1390.26 803.905 1390.19C805.628 1390.18 807.04 1390.69 808.151 1391.51M774.664 1278.69C781.805 1277.77 788.397 1278.76 794.102 1283.66C800.984 1289.58 805.607 1299.39 815.5 1300.04C818.384 1300.22 819.054 1304.5 816.188 1305.4C808.824 1307.7 802.862 1303.49 797.845 1298.04L794.471 1294.32C789.513 1288.9 784.941 1284.71 776.528 1285.03C767.518 1285.38 758.493 1287.58 749.541 1288.69C739.401 1289.96 729.263 1291.04 719.091 1291.97C718.619 1292.01 718.538 1291.23 718.981 1291.11L730.374 1288.12M767.771 1247.88L768.949 1247.76C779.319 1246.69 788.802 1246.65 798.063 1252.54L799.839 1253.67C808.189 1259.03 817.277 1265.34 822.498 1274.01C823.352 1275.43 821.941 1277.1 820.511 1276.74C810.476 1274.2 803.139 1266.43 794.7 1260.61C785.229 1254.08 775.445 1255.16 764.646 1256.17C754.19 1257.16 743.74 1258.51 733.387 1260.34C723.658 1262.07 713.899 1264.8 704.072 1265.67L704.075 1265.65C702.952 1265.64 702.312 1263.86 703.456 1263.26C713.429 1258.01 724.979 1255.52 735.826 1253.12M412.697 950.291C412.684 949.426 413.837 949.102 414.24 949.851C420.987 962.379 424.514 977.735 428.108 991.537C431.872 1006 434.911 1020.6 437.641 1035.31C443.171 1065.1 446.117 1094.72 446.317 1125.09C446.344 1129.42 439.653 1130.57 438.998 1126.13C434.652 1096.6 430.488 1067.03 426.109 1037.51C423.906 1022.66 421.341 1007.86 418.888 993.055M479.49 972.112C478.993 970.384 481.376 969.806 481.985 971.386C495.525 1006.46 500.111 1046.22 491.418 1083.22C490.087 1088.89 482.231 1086.43 483.235 1080.84M654.142 940.943C654.074 939.65 655.664 939.446 656.264 940.336C662.679 949.876 665.341 962.653 676.597 967.584C682.217 970.045 688.541 969.617 693.506 973.775C696.826 976.556 699.371 980.945 696.88 985.157C696.076 986.518 693.826 987.199 692.736 985.721C691.144 983.567 690.302 980.987 688.139 979.373C685.089 977.095 680.976 976.954 677.479 975.883C672.955 974.499 668.968 972.077 665.703 968.478M761.326 781.818C761.987 781.462 762.622 781.689 763.045 782.293C763.649 783.153 763.575 783.989 762.835 784.579C763.823 786.71 764.99 792.048 765.157 792.825C765.832 795.975 766.551 799.107 767.303 802.236C768.819 808.547 770.148 814.907 771.666 821.22C773.276 827.912 775.193 834.533 777.327 841.058C777.464 841.481 777.616 841.912 777.775 842.35L778.018 843.011L778.078 842.911C778.511 842.187 779.414 842.693 779.307 843.457C779.208 844.154 779.074 844.847 778.962 845.544L779.185 846.168C780.581 850.133 781.537 854.308 778.976 857.807C778.018 859.115 776.964 859.89 775.65 860.121C773.544 867.449 770.901 874.641 768.072 881.547L767.243 883.564C763.081 893.642 758.643 903.587 752.016 912.166C744.781 921.533 734.83 927.929 728.528 938.193C725.596 942.968 723.556 947.988 721.9 953.38L721.277 955.426C720.102 959.24 718.746 962.936 715.357 965.173C714.275 965.886 712.654 965.659 711.782 964.686C704.831 956.926 712.108 942.435 716.299 934.922C722.125 924.474 730.558 917.79 739.002 909.907C748.103 901.411 753.908 890.045 759.524 878.848C762.963 871.988 766.284 864.98 769.78 858.09C766.127 854.683 764.958 847.916 763.721 843.212L763.608 842.79C761.562 835.257 759.938 827.528 758.911 819.765C757.923 812.301 757.511 804.945 757.772 797.439L757.848 795.527M774.906 817.342C774.1 816.174 775.435 814.852 776.542 815.095C783.274 816.564 789.855 820.865 795.897 824.342L796.542 824.712C801.365 827.456 806.218 830.819 808.75 836.151C811.504 841.947 811.277 848.622 810.902 854.92L810.866 855.509C810.406 863.062 810.332 870.91 808.817 878.327C808.043 882.122 804.785 883.192 802 882.295C798.686 893.338 789.377 901.475 782.577 910.189C773.907 921.299 775.539 936.299 776.445 949.679C776.812 955.097 770.427 956.637 767.139 953.746L759.56 947.103C758.298 945.994 757.038 944.883 755.781 943.768C754.704 942.812 753.637 941.848 752.579 940.873L750.999 939.4C750.298 938.738 747.206 935.093 746.302 934.941C744.112 934.574 738.91 940.665 737.129 942.575L736.903 942.814C733.552 946.282 730.524 950.014 727.704 953.971C727.185 954.698 726.17 954.095 726.541 953.255C729.069 947.541 732.007 942.079 735.496 936.966L736.201 935.948C738.523 932.646 741.639 926.817 745.737 925.841C750.74 924.652 755.736 929.947 759.376 932.886L759.607 933.07C761.339 934.442 763.051 935.837 764.76 937.242C764.581 927.28 765.773 917.214 770.647 908.629C774.083 902.574 779.231 898.09 783.637 892.887C788.542 887.093 791.102 879.973 795.542 873.939C796.114 873.163 796.902 872.745 797.756 872.612C797.926 867.761 798.603 862.862 799.126 858.064L799.278 856.628C799.807 851.414 801.056 845.046 798.638 840.163C796.353 835.552 791.111 832.296 787.229 829.167L784.06 826.573M556.434 762.214C554.407 763.451 552.513 764.99 550.794 766.914C545.384 772.971 541.516 780.509 537.752 787.76C535.725 791.665 533.771 795.613 531.728 799.509C530.839 801.204 529.925 802.881 529.001 804.555C528.574 805.326 527.305 806.86 526.676 807.804C527.375 808.838 528.098 809.856 528.835 810.863C529.116 811.247 548.523 833.559 555.288 842.292C565.647 855.668 574.906 869.796 582.822 884.918C590.573 899.727 596.475 915.406 603.655 930.501C607.249 938.059 611.263 945.563 616.38 952.103C616.577 952.359 616.786 952.6 616.988 952.851C618.941 947.284 623.944 941.323 626.402 937.9L626.631 937.577C632.205 929.647 638.091 921.957 644.105 914.397C649.597 907.494 655.23 900.74 660.999 894.097L663.168 891.611C667.188 887.029 672.293 880.173 678.177 876.899C677.546 875.713 676.817 874.54 675.978 873.382C670.465 865.779 662.672 860.262 654.983 855.283L649.996 852.082C631.2 839.992 612.696 827.343 596.377 811.635C587.744 803.324 579.23 794.617 571.973 784.923L569.407 781.495M587.797 756.229C578.995 757.009 569.489 756.824 561.355 759.85C568.586 767.065 575.46 774.856 582.522 782.192C583.15 777.23 584.435 772.329 585.523 767.491" fill="black"/>
<path fill-rule="evenodd" clip-rule="evenodd" d="M677.259 297.387C739.806 297.387 804.499 348.662 827.426 381.382C846.702 408.892 857.081 533.289 857.081 617.358C857.081 634.941 866.255 668.085 863.578 684.903C853.767 746.533 811.025 798.219 726.428 798.219C641.831 798.219 581.176 762.754 518.297 667.533C487.788 667.533 473.002 642.788 472.787 603.738C472.573 564.687 502.236 550.479 502.236 550.479C502.236 550.479 491.66 396.369 518.297 356.246C544.934 316.124 614.713 297.387 677.259 297.387Z" fill="#EDB98A"/>
<path fill-rule="evenodd" clip-rule="evenodd" d="M650.938 275.596C690.429 271.367 729.126 274.92 768.044 282.273C771.018 282.843 772.703 284.906 773.33 287.386C791.661 288.272 810.012 289.694 828.319 290.754C834.962 291.139 838.729 298.081 835.699 304.35C835.095 305.596 834.466 306.807 833.827 308.019L834.629 307.739C840.137 305.871 846.085 304.949 851.451 307.915C858.281 311.69 860.959 320.019 859.45 327.685C859.063 329.642 858.414 331.518 857.676 333.348C859.174 333.243 860.683 333.278 862.182 333.488C870.157 334.606 876.083 341.072 876.502 349.682C877.118 362.682 869.198 375.872 859.868 385.179C861.222 388.128 861.741 391.6 861.178 395.118C860.054 402.074 855.21 406.239 849.594 408.955C851.936 416.821 853.043 425.043 852.39 433.447C852.172 436.252 849.852 438.569 847.403 439.138C856.531 465.717 861.151 494.253 864.473 522.059C866.841 541.843 868.009 561.742 868.151 581.674C868.22 590.674 868.08 599.683 867.723 608.684L867.579 612.058C867.138 621.788 867.116 632.004 865.464 641.628C871.104 651.774 873.373 664.37 874.332 675.739C875.521 689.813 873.638 704.329 869.44 717.717C853.599 768.301 805.793 800.223 757.776 808.52C713.33 816.197 661.899 805.863 635.924 763.164C635.517 762.488 636.387 761.93 636.894 762.373C655.477 778.356 677.033 785.486 700.453 788.957C740.946 794.947 786.46 784.787 818.956 757.852C834.554 744.92 845.8 726.093 850.748 705.832C853.27 695.476 854.14 684.675 853.148 674.016C852.134 663.205 847.608 653.978 844.755 643.76C843.797 640.311 844.81 637.107 846.804 634.824C847.365 626.528 848.688 618.163 849.193 609.893C849.755 600.49 850.098 591.088 850.219 581.674C850.45 562.148 849.679 542.587 848.126 523.144C845.284 487.539 837.738 452.799 833.31 417.497C831.67 419.053 829.32 419.691 826.857 418.333L826.602 418.185L825.258 417.37C825.181 417.37 825.093 417.382 825.014 417.393C815.818 418.337 806.278 416.986 797.466 414.084C788.245 411.056 779.687 406.396 772.041 400.186C770.588 407.979 769.981 415.855 769.971 423.8C769.96 428.763 764.992 431.339 761.049 429.219C743.567 419.828 726.868 409.005 711.017 396.843C709.165 406.873 707.315 416.903 705.453 426.946C704.738 430.815 700.077 432.376 697.092 430.535C685.218 423.229 674.963 413.666 666.613 402.294C664.946 405.665 663.274 409.036 661.591 412.4L659.057 417.439C656.556 422.391 653.208 427.867 647.733 429.451C641.939 431.128 637.102 427.157 635.153 421.61C634.558 419.887 634.008 418.115 633.501 416.332C628.565 428.252 622.992 439.902 616.691 451.017C607.24 467.687 595.893 482.541 584.581 497.78C581.145 502.406 575.262 497.99 574.789 493.494C574.513 490.849 574.282 488.193 574.083 485.547C567.491 499.616 560.613 513.553 553.119 527.087L554.192 531.533V531.533C557.284 544.673 559.852 557.905 562.643 571.114C563.544 575.376 561.403 581.469 556.695 582.195C551.07 583.062 545.749 586.101 539.987 584.01C533.705 581.729 532.464 575.987 529.499 570.544C528.907 569.459 528.219 568.463 527.478 567.517L527.29 567.775V567.775C526.827 568.417 525.726 567.718 526.001 566.984L526.324 566.136V566.136C523.776 563.276 520.727 560.89 517.924 558.323C511.261 557.136 503.768 558.436 499.177 561.299C488.724 567.822 483.922 581.266 483.823 593.629C483.702 608.098 487.942 624.362 495.102 636.735C498.253 642.176 502.571 647.091 508.276 649.504C513.939 651.903 520.075 651.158 525.836 653.417C529.647 654.921 531.994 659.395 529.691 663.448C529.537 663.729 529.361 663.984 529.195 664.253L530.908 666.658C532.087 668.324 533.315 670.108 534.461 671.965C537.391 675.531 540.475 678.968 543.461 682.474C548.978 688.939 554.333 695.581 559.762 702.139C564.886 708.326 570.305 714.139 575.89 719.859C581.167 725.278 587.754 729.832 592.601 735.612C597.314 741.25 598.593 751.094 590.837 754.357C582.257 757.976 574.661 749.494 568.885 743.84L568.642 743.603C558.054 733.298 548.493 721.522 540.9 708.556C533.378 713.971 522.499 714.488 515.01 709.074C511.069 706.226 508.045 701.439 506.575 696.231C505.19 696.56 503.805 696.752 502.455 696.73C501.76 697.156 501.062 697.571 500.357 697.958C494.771 701.032 487.91 699.659 485.354 693.122C483.027 687.187 485.425 680.448 487.521 674.73L487.954 673.549C489.144 670.288 490.454 666.735 492.085 663.391C487.546 659.779 483.668 655.293 480.386 650.191C469.36 633.007 463.852 607.876 466.286 587.372C467.752 575 473.247 562.184 482.247 553.842L481.917 552.933V552.933C479.395 546.165 477.103 539.372 475.617 532.22C473.876 523.855 473.027 515.187 472.257 506.67C470.627 488.682 471.067 470.286 473.237 452.368C477.313 418.64 487.645 385.53 505.986 357.464C500.786 350.881 496.667 343.133 498.814 334.222C499.795 330.131 502.03 326.253 505.402 323.91C507.263 322.618 509.478 322.42 511.34 321.348L511.899 321.022C512.717 320.518 512.092 320.571 511.604 318.226C509.676 308.858 511.274 299.807 521.022 296.696C530.198 293.772 538.878 299.981 544.309 307.379C558.519 296.718 577.245 291.139 593.713 286.397C612.439 281.025 631.649 277.671 650.938 275.596ZM497.45 589.807C497.382 582.176 504.223 577.469 510.955 578.717C515.475 579.549 519.245 582.402 522.786 585.351L524.512 586.795C528.824 590.375 533.774 594.235 536.344 599.303C540.111 606.782 532.148 616.847 524.713 611.604C519.612 607.989 516.343 602.197 512.997 596.816L512.651 596.261C511.131 593.849 509.798 591.286 507.715 589.352L507.265 588.935C506.58 588.318 505.845 587.755 504.961 587.488C503.255 586.97 500.096 587.696 499.344 589.843L499.277 590.063C499.002 591.148 497.461 590.913 497.45 589.807Z" fill="#B58143"/>
<path fill-rule="evenodd" clip-rule="evenodd" d="M774.965 706.197C766.833 708.683 758.104 708.905 749.815 706.338C742.297 704.009 734.578 698.884 729.044 692.104C724.129 686.08 720.945 678.759 721.07 670.945C721.085 670.053 721.387 669.308 721.852 668.73C722.353 668.107 723.052 667.68 723.801 667.494C724.572 667.303 725.386 667.371 726.08 667.704C726.708 668.005 727.246 668.516 727.582 669.263C728.432 670.442 729.279 671.604 730.13 672.733C736.967 681.643 743.589 688.302 753.87 690.691C759.448 691.987 765.02 691.412 770.132 689.435C775.604 687.318 780.55 683.596 784.427 678.833C786.178 676.681 788.246 675.802 790.269 675.787C792.56 675.771 794.826 676.894 796.532 678.691C798.209 680.456 799.333 682.856 799.434 685.366C799.524 687.569 798.843 689.87 797.031 691.923C791.065 698.685 783.332 703.639 774.965 706.197ZM774.714 594.596C783.05 599.944 795.751 612.413 786.783 625.67C776.228 637.36 761.03 623.957 753.541 617.896C746.597 613.198 738.795 625.28 745.238 630.765C799.354 673.051 821.315 595.994 778.93 588.309C774.263 587.462 772.53 592.942 774.714 594.596ZM696.737 571.066C694.058 569.257 690.906 568.637 687.413 570.314C684.684 571.624 679.896 575.991 676.565 581.732C674.286 585.66 672.669 590.267 673.006 595.066C673.084 596.181 672.694 597.003 672.078 597.611C671.592 598.09 670.89 598.443 670.065 598.553C669.365 598.647 668.581 598.563 667.944 598.353C666.732 597.953 666.09 597.123 665.848 596.446C663.516 589.907 664.521 582.611 667.135 576.029C670.663 567.145 677.071 559.704 681.269 557.305C688.452 553.198 696.927 553.009 704.121 557.193C710.244 560.754 714.074 566.503 717.882 572.363C718.691 573.608 719.495 574.845 720.325 576.06C721.989 578.494 722.155 580.908 721.511 582.979C720.797 585.272 718.976 587.208 716.7 588.221C714.595 589.157 712.153 589.289 709.992 588.327C708.167 587.514 706.492 585.93 705.431 583.242C703.646 578.716 700.672 573.721 696.737 571.066V571.066ZM832.807 581.137C830.972 582.146 829.536 582.45 827.501 581.806C826.375 581.449 825.263 580.766 824.392 579.846C823.529 578.935 822.906 577.802 822.664 576.546C822.069 573.444 820.461 570.541 818.169 568.648C816.211 567.03 813.739 566.173 810.997 566.656C808.038 567.178 805.219 569.18 803.277 571.542C802.628 572.332 802.12 573.229 801.608 574.12C800.652 575.787 799.722 577.337 798.402 578.561C797.902 579.026 797.149 579.349 796.419 579.349C796.122 579.349 795.821 579.298 795.534 579.204C792.589 576.084 792.023 573.718 792.118 571.37C792.217 568.909 793.137 566.417 794.623 564.091C798.108 558.637 804.726 554.164 809.192 553.151C815.308 551.764 821.382 553.429 826.252 557.034C831.263 560.744 834.976 566.503 836.133 572.994C836.412 574.557 836.293 576.244 835.729 577.707C835.178 579.137 834.217 580.361 832.807 581.137ZM710.225 512.91C706.555 516.684 702.211 517.269 697.816 517.789C695.374 518.08 693.425 518.315 691.507 518.772C686.234 520.028 681.023 521.92 676.268 524.645C671.297 527.493 665.881 530.928 661.984 535.329C661.057 536.376 660.184 537.474 659.309 538.576C658.512 539.58 657.743 540.546 656.933 541.479C656.003 542.549 655.12 543.671 654.242 544.79C653.699 545.735 653.592 545.967 653.482 546.209C653.318 546.572 653.126 546.979 652.907 547.415C652.608 548.012 652.257 548.666 651.89 549.259C651.278 550.343 650.95 550.641 650.667 550.775C650.197 550.996 649.751 551.105 649.318 551.046C648.912 550.99 648.53 550.785 648.153 550.448C646.268 548.768 645.713 546.01 645.77 543.083C645.856 538.641 647.408 533.723 648.839 530.699C652.167 523.675 656.782 516.372 662.331 511.129C668.662 505.144 675.59 500.613 683.546 497.491C688.491 495.551 694.216 493.769 699.603 493.994C703.481 494.156 707.182 495.373 710.239 498.411C712.116 500.275 713.017 502.928 713.017 505.579C713.017 508.282 712.082 511.002 710.225 512.91ZM840.271 547.471C840.038 547.875 839.715 548.153 839.355 548.32C838.979 548.495 838.558 548.546 838.154 548.474C837.752 548.402 837.37 548.21 837.067 547.916C836.777 547.634 836.555 547.261 836.457 546.803C834.02 535.508 829.288 527.103 819.189 521.684C814.221 519.018 808.508 517.324 803.1 515.974C801.529 515.581 799.868 515.327 798.196 515.069C792.955 514.261 787.676 513.336 784.259 508.865C782.201 506.172 781.337 502.728 781.825 499.578C782.285 496.612 783.927 493.892 786.912 492.262C794.344 488.207 803.58 492.186 811.085 495.576C811.641 495.828 812.188 496.075 812.723 496.313C820.062 499.582 826.756 503.898 832.258 510.07C836.624 514.967 840.669 522.205 842.298 529.652C843.653 535.847 843.335 542.172 840.271 547.471Z" fill="black"/>
</svg>
