<svg width="1316" height="1786" viewBox="0 0 1316 1786" fill="none" xmlns="http://www.w3.org/2000/svg">
<path fill-rule="evenodd" clip-rule="evenodd" d="M626.309 1047.54C628.014 1064.23 624.528 1080.16 616.225 1093.64L613.524 1098.02L618.665 1099.71C628.023 1102.78 638.429 1104.27 650.478 1104.27C662.879 1104.27 675.775 1102.65 686.136 1101.35L692.77 1100.51L689.512 1095.11C686.891 1090.76 686.406 1085.49 685.892 1079.92C685.753 1078.42 685.611 1076.87 685.424 1075.34C675.606 993 663.195 909.583 651.193 828.913C648.034 807.686 644.769 785.735 641.601 764.143L632.513 764.472C630.068 804.438 627.696 845.079 625.401 884.383C624.393 901.666 623.383 918.95 622.366 936.231C618.739 979.922 619.992 1015.3 626.309 1047.54M630.018 1541.31C616.671 1541.31 603.299 1540.01 590.274 1537.44C549.515 1529.41 512.485 1510.47 480.976 1493.34C479.367 1492.49 477.735 1491.63 476.059 1490.75C463.723 1484.28 448.371 1476.22 438.75 1466.39C428.196 1455.61 426.379 1444.86 433.035 1432.57L434.088 1430.63L432.987 1428.71C426.096 1416.67 426.609 1401.78 434.233 1392.5L440.641 1384.7L430.106 1385.75C419.483 1386.81 408.776 1388.24 398.421 1389.62C386.933 1391.16 375.051 1392.75 363.351 1393.82L360.099 1394.11L359.351 1397.05C358.934 1398.69 358.421 1399.68 354.811 1399.68C351.681 1399.68 347.474 1398.82 343.022 1397.91C337.497 1396.78 331.234 1395.5 325.194 1395.5C322.538 1395.5 320.149 1395.74 317.889 1396.23L316.574 1396.51L315.638 1397.41C315.04 1397.99 314.021 1398.35 312.98 1398.35C312.193 1398.35 311.463 1398.14 310.975 1397.78L309.499 1396.7L307.627 1396.89C275.007 1400.25 246.879 1406.15 221.639 1414.92L221.525 1414.96L220.978 1415.18C211.851 1418.88 202.415 1422.7 193.821 1422.7C187.539 1422.7 182.438 1420.7 177.766 1416.39L176.446 1415.17L174.584 1415.16C155.688 1414.99 147.053 1394.32 145.86 1380.46L145.71 1378.72L144.269 1377.58C111.338 1351.65 91.8964 1316.04 84.8323 1268.71C78.3986 1225.6 83.3385 1180.14 89.0192 1141.36C102.16 1040.86 115.866 950.767 150.705 865.319L152.333 861.325L147.995 859.863C132.948 854.789 121.448 848.736 112.838 841.357L112.241 840.845L111.491 840.556C99.1501 835.799 93.1063 818.238 91.5477 812.97L91.4229 812.545L91.2051 812.154C88.6872 807.622 88.1063 801.318 89.6123 794.857L89.7737 794.161L89.6801 793.454C88.8669 787.32 91.566 780.907 94.4235 774.117C95.7292 771.016 97.0784 767.81 98.0644 764.617C101.454 755.491 104.84 746.204 108.115 737.221C115.464 717.067 123.062 696.228 131.156 675.956L132.264 673.183L129.825 671.272C125.662 668.009 127.052 664.169 133.055 654.985C134.474 652.816 135.815 650.764 136.836 648.741C144.531 636.265 152.778 624.288 161.353 613.139L161.53 612.91L161.67 612.663C205.67 535.558 283.717 493.096 381.434 493.096L383.426 493.099L384.527 492.478C402.841 482.144 415.915 464.414 424.495 438.274L424.769 437.44L424.663 436.575C424.369 434.165 424.047 431.007 424.158 427.941C424.437 420.179 427.68 413.252 433.054 408.936C443.249 400.748 458.728 400.062 473.708 400.062L475.859 400.066C495.011 400.117 508.533 403.237 518.413 409.886C529.891 417.611 536.235 430.082 537.807 448.01C538.277 453.374 538.261 458.932 538.247 464.306L538.243 465.806L538.435 466.401C539.812 470.662 541.425 474.756 543.228 478.571L545.082 482.496L549.3 480.726C552.028 479.583 555.487 478.994 559.875 478.928C561.141 478.9 562.375 478.888 563.62 478.888C573.809 478.888 584.709 479.761 595.251 480.604C603.194 481.241 611.408 481.899 619.358 482.191L619.467 482.195C619.467 482.195 620.565 482.189 621.058 482.189C640.381 482.189 654.389 485.04 665.14 491.163C676.717 497.754 685.041 508.333 691.336 524.456C725.097 616.87 738.977 716.413 751.22 804.234C758.165 850.16 760.277 897.242 762.32 942.773C764.477 990.832 766.706 1040.53 774.601 1089.1L775.224 1092.95L779.417 1092.69C797.866 1091.57 817.803 1089.17 838.91 1086.62C870.979 1082.75 904.14 1078.75 936.198 1078.75C981.021 1078.75 1015.01 1087.02 1040.08 1104.04C1057.56 1119.5 1066.6 1140.42 1066.23 1164.57C1065.7 1198.69 1046.47 1236.42 1017.23 1260.68L1017.12 1260.77C980.154 1293.54 912.683 1321.96 816.579 1345.24C728.205 1366.65 636.793 1378.28 590.168 1383.31L578.629 1384.56L587.995 1390.91C591.786 1393.48 595.245 1395.75 598.57 1397.83L600.715 1399.18L603.065 1398.17C609.765 1395.28 614.02 1394.68 616.412 1394.68C618.534 1394.68 621.094 1395.11 621.234 1397.17C621.327 1398.52 620.303 1400.52 618.143 1400.78L606.674 1402.12L616.039 1408.39C622.294 1412.57 631.627 1417.62 642.435 1423.46C677.793 1442.58 731.227 1471.46 722.037 1496.83L721.434 1498.5L722.288 1500.07C724.758 1504.61 724.968 1508.83 722.931 1512.96C718.568 1521.81 704.92 1528.53 693.33 1531.27L693.131 1531.31L692.937 1531.38C672.769 1537.97 651.6 1541.31 630.018 1541.31" fill="#EDB98A"/>
<path fill-rule="evenodd" clip-rule="evenodd" d="M538.974 1350.8C539.332 1350.28 539.652 1349.55 539.826 1348.9C542.272 1352.17 581.4 1384.34 620.095 1411.65C656.036 1437.02 697.258 1456.18 713.261 1477.33C719.343 1485.37 722.434 1508.92 721.265 1512.88C718.65 1515.99 689.88 1529.96 689.88 1529.96C683.379 1531.61 631.201 1544.88 608.023 1540.37C599.497 1539.15 538.018 1520.69 530.252 1517.39L464.187 1481.41C462.744 1480.82 461.308 1480.23 459.881 1479.64L457.949 1478.92C443.216 1473.39 424.42 1461.66 428.268 1444.76C432.795 1427.37 424.674 1423.57 426.533 1412.11C428.143 1402.2 431.655 1392.1 437.268 1382.48C458.953 1405.36 486.477 1403.36 500.341 1374.92L500.659 1374.34L500.973 1373.76C505.506 1365.27 509.792 1354.49 520.526 1351.15C526.449 1347.4 534.025 1346.62 538.974 1350.8ZM340.821 1286.98L342.162 1289.87C348.686 1303.87 362.534 1332.97 368.036 1344.45C366.81 1342.32 365.409 1340.28 363.833 1338.35C359.227 1332.72 364.631 1349.74 364.673 1367.51C364.712 1383.99 359.288 1401.11 358.038 1401.39C356.501 1401.74 335.046 1391.85 314.934 1394.85C298.695 1397.28 274.074 1400.01 249.615 1406.28C229.733 1411.37 209.958 1420.01 194.878 1422.94C182.625 1425.33 180.23 1412.87 172.225 1413.64C165.013 1414.33 163.852 1414.17 162.066 1412.77C152.054 1405 142.59 1374.3 143.534 1362.77C151.844 1301.64 280.115 1281.93 340.821 1286.98Z" fill="white"/>
<path fill-rule="evenodd" clip-rule="evenodd" d="M214.722 880.329L218.891 881.404L403.584 929.897C404.765 930.621 405.644 931.147 406.488 931.628L407.089 931.967L410.584 933.911L409.771 937.647C407.943 946.051 407.671 954.695 408.501 966.765L408.549 967.439L408.65 968.809L408.797 970.676L408.849 971.313L409.854 982.818L410.043 985.126C410.191 986.991 410.3 988.552 410.396 990.182L410.418 990.559L410.562 993.201L410.615 994.333C411.115 1005.84 410.25 1017.08 408.009 1033.34L407.898 1034.14L407.579 1036.4L407.358 1038.37L406.432 1046.44L406.109 1049.32C404.014 1068.33 402.977 1083.26 403.244 1097.17L403.259 1097.86C403.667 1116.11 406.653 1128.48 411.618 1132.73L411.769 1132.86L411.9 1132.96L411.93 1132.97C412.419 1132.99 413.219 1132.7 414.771 1131.82L415.42 1131.44C415.822 1131.21 416.583 1130.75 416.937 1130.55L417.326 1130.33C418.048 1129.93 418.674 1129.61 419.33 1129.35C420.349 1128.94 421.387 1128.67 422.415 1128.59L422.724 1128.57L422.769 1128.57L423.052 1128.34C423.984 1127.55 424.872 1126.68 425.684 1125.76L426.027 1125.36L426.324 1125L428.322 1122.54L429.678 1120.33C430.719 1118.64 431.662 1116.84 432.509 1114.94L432.822 1114.22L433.096 1113.57L444.944 1084.79L444.132 1115.63C443.856 1126.11 448.031 1131.54 453.172 1131.59C458.582 1131.65 464.121 1126.07 465.722 1116.16L465.775 1115.82L477.104 1117.17C476.362 1123.38 478.726 1133.19 482.515 1138.73C484.16 1141.13 485.707 1142.26 486.814 1142.35C488.153 1142.45 490.264 1141.28 493.096 1137.86L493.093 1137.86L493.035 1137.93L493.156 1137.77C495.62 1134.46 496.989 1130.02 497.708 1123.7L497.759 1123.24L497.806 1122.79L501.773 1083.65L509.113 1122.36C509.832 1126.16 510.642 1129.97 511.541 1133.8L511.71 1134.52L511.834 1134.47C512.104 1134.37 512.449 1134.22 512.851 1134.01L513.027 1133.91L513.191 1133.82C515.64 1132.42 518.534 1129.6 519.688 1127.76L519.797 1127.58L521.11 1125.34L523.793 1124.89C524.26 1124.81 524.759 1124.6 525.118 1124.37L525.245 1124.28L527.174 1122.8L529.638 1123.12C565.586 1127.81 592.063 1123.86 608.912 1107.3L609.42 1106.79L612.046 1104.14L615.648 1105.44C631.663 1111.2 846.729 1085.77 864.676 1084.19L868.656 1083.85L871.983 1083.57C900.148 1081.25 925.489 1081.6 949.837 1081.85L951.402 1081.87L953.58 1081.99L955.587 1082.11C976.029 1083.39 992.186 1085.74 1006.81 1090.23C1025.14 1095.87 1039.62 1104.64 1049.87 1117.39L1050.32 1117.96L1050.82 1118.67C1064.27 1138.15 1068.32 1161.66 1063.65 1186.26C1059.42 1208.54 1048.12 1230.73 1032.31 1248.57L1031.8 1249.14L1030.89 1250.22C997.439 1288.93 928.563 1320.05 832.89 1344.8L829.983 1345.55L826.999 1346.31C756.106 1364.25 676.451 1377.42 598.468 1386.26L596.032 1386.53L591.212 1387.06L575.118 1388.83L585.362 1379.05L585.315 1379.04C584.25 1378.71 567.78 1381.92 567.78 1381.92L564.262 1379.17C562.241 1377.58 560.724 1376.36 559.285 1375.15L558.608 1374.57L555.901 1372.23L556.391 1369.38C556.392 1369.33 556.37 1369.25 556.269 1369.08L556.221 1369C556.221 1369 544.311 1355.93 543.388 1355.17L543.235 1355.04L543.011 1354.87L542.918 1354.8C540.766 1353.29 518.322 1354.02 518.322 1354.02C518.322 1354.02 502.844 1329.35 500.806 1326.75L500.317 1326.12L495.248 1326.09L497.168 1323.06C499.964 1318.65 501.684 1313.7 502.406 1308.25L502.477 1307.69L502.519 1307.32L502.2 1307.52C500.049 1308.89 498.794 1310.25 498.378 1311.54L498.332 1311.69L498.299 1311.82L498.268 1311.95L498.103 1312.52C495.767 1320.22 490.805 1326.28 483.53 1331.08C478.389 1334.48 404.483 1358.66 386.192 1363.03L384.917 1363.34L380.358 1364.42L377.09 1357.9C372.061 1347.81 365.547 1334.34 357.545 1317.47L353.604 1309.15L349.559 1300.56L330.296 1289.96L317.065 1290.16C314.266 1290.21 311.694 1290.25 309.349 1290.3L308.195 1290.32L300.903 1290.47L299.589 1290.6C269.078 1293.66 239.353 1299.87 211.185 1309.15L209.754 1309.63L208.263 1310.13L207.467 1310.37L206.052 1310.81C186.151 1317.01 172.861 1323.33 163.324 1331.74C152.248 1341.49 146.349 1354.25 145.561 1371.96L145.538 1372.53L145.073 1384.73L135.818 1376.15C108.259 1350.6 90.2155 1315.93 82.5216 1276.44C75.4543 1240.16 77.502 1201.26 87.9794 1166.19L88.136 1165.67L88.1635 1165.32C88.9477 1155.52 90.8407 1145.5 93.8236 1134.53L94.1065 1133.5L94.3957 1132.47C96.5372 1124.86 98.6649 1118.33 102.489 1107.46L102.913 1106.26L107.986 1091.98C134.276 1020.96 168.957 951.826 211.206 885.803L212.488 883.803L214.722 880.329Z" fill="#8FA7DF"/>
<path fill-rule="evenodd" clip-rule="evenodd" d="M591.219 1378.34C592.613 1377.01 593.199 1375.27 591.897 1373.22C586.864 1367.19 576.425 1371.31 569.931 1372.7C567.479 1370.79 565.043 1368.87 562.698 1366.84C563.513 1362.1 557.437 1358.95 554.939 1355.29C552.488 1352.59 550.181 1349.53 547.241 1347.27C540.077 1342.03 530.149 1345.58 521.834 1345.34C515.431 1337.7 508.838 1330.29 502.747 1322.4C509.766 1311.33 510.261 1298.36 507.932 1286.02C615.614 1247.68 708.823 1175.1 825.284 1158.32C829.289 1157.69 831.535 1153.13 830.537 1149.78C822.413 1131.59 705.67 1178.52 688.219 1187.02C636.75 1210.15 588.539 1238.97 538.516 1264.4C528.085 1269.6 516.611 1272.4 505.206 1275.1C487.679 1221.13 458.03 1171.65 435.295 1119.61C436.772 1117.21 438.029 1114.69 439.095 1112.1C438.341 1140.72 468.005 1140.32 472.101 1113.17C470.411 1127.32 481.816 1157.63 498.277 1137.74C502.137 1132.75 503.508 1126.35 504.162 1119.9C505.008 1124.36 505.967 1128.8 507.033 1133.23C511.258 1141.99 522.794 1131.33 525.473 1126.76C527.019 1126.5 528.466 1125.84 529.524 1125.03C558.632 1128.82 592.916 1128.6 614.274 1107.04C650.501 1120.08 690.595 1108.4 727.233 1103.19C801.788 1095.15 876.64 1082.89 951.864 1083.83C985.449 1085.65 1025.07 1090.74 1046.31 1117.63C1073.56 1156.39 1058.16 1208.74 1028.1 1242.29C955.793 1328.2 707.589 1365.55 591.219 1378.34M593.252 1409.28C594.569 1408.95 595.894 1408.65 597.211 1408.36C618.317 1424.85 717.716 1467.66 710.155 1493.24C707.483 1496.42 701.087 1497.14 697.043 1498.17C690.001 1499.96 682.889 1501.51 675.71 1502.73C652.502 1506.69 628.466 1507.38 605.289 1502.86C596.762 1501.65 589.065 1498.23 581.299 1494.93C556.203 1484.57 528.565 1473.13 503.591 1462.86C471.864 1451.06 416.214 1427.8 439.102 1388.55C460.787 1411.44 488.311 1409.44 502.175 1381C506.957 1372.36 511.129 1360.72 522.36 1357.23C528.283 1353.47 535.859 1352.69 540.808 1356.88C541.166 1356.36 541.486 1355.63 541.66 1354.98C547.241 1362.43 552.054 1370.28 558.593 1377.09C556.348 1377.2 532.973 1393.44 539.872 1393.44C548.171 1389.43 556.416 1386.09 565.378 1383.93C571.873 1390.06 579.014 1395.76 586.415 1401.03C579.228 1405.48 572.771 1410.94 567.578 1416.86C567.129 1417.38 567.677 1418.05 568.347 1417.77C576.41 1414.4 584.702 1411.44 593.252 1409.28M700.242 1519.86C619.512 1553.89 534.046 1516 465.202 1475.61C449.313 1467.28 428.413 1455.48 431.626 1435.88C443.328 1451.95 462.622 1461.1 481.138 1469.03C512.249 1482.22 543.564 1495 574.751 1508.03C577.696 1517.2 591.782 1517.55 600.295 1519.58C638.189 1526.48 678.923 1523.05 714.586 1509.3C712.522 1515.04 705.77 1517.67 700.242 1519.86M378.145 1387.38C376.151 1387.62 374.156 1387.83 372.161 1388.05C372.367 1385.57 370.776 1383.09 368.217 1382.33C369.367 1377.07 369.794 1371.65 369.177 1366.32C372.512 1374.41 383.278 1371.95 390.115 1369.62C399.883 1367.13 409.591 1364.45 419.245 1361.59C423.052 1368.23 427.088 1374.77 432.044 1380.78C413.999 1382.28 396.122 1385.27 378.145 1387.38M370.205 1361.95C369.725 1362.9 369.04 1363.9 369.025 1365.04C368.537 1361.11 367.586 1357.22 366.139 1353.5C367.493 1356.32 368.849 1359.13 370.205 1361.95M358.814 1340.85C349.937 1330 333.529 1321.12 318.362 1324.15C317.388 1324.35 317.364 1325.82 318.362 1326C338.737 1328.6 356.629 1343.76 357.337 1363.37C358.944 1372.24 352.366 1380.95 354.581 1389.47C354.14 1389.5 353.698 1389.52 353.264 1389.55C353.104 1390.11 352.959 1390.62 352.768 1391.07C354.969 1391.41 355.617 1394.73 353.02 1395.32C351.482 1395.67 349.876 1395.86 348.239 1395.93C339.932 1393.83 331.169 1393.34 323.227 1390.23C315.37 1386.98 317.334 1377.82 314.563 1371.48C312.53 1364.17 310.192 1356.89 307.246 1349.87C307.033 1349.31 306.218 1349.43 306.149 1350C304.071 1364 304.139 1378.24 304.642 1392.35C301.916 1392.61 299.206 1392.89 296.487 1393.21C296.663 1389.27 284.062 1341.26 277.422 1353.58C280.765 1367.13 281.168 1381.28 281.526 1395.22C261.814 1398.26 242.391 1402.8 223.494 1408.98C210.177 1412.77 194.339 1423.97 181.412 1413.84C171.4 1406.08 168.027 1392.52 168.971 1380.99C181.991 1312.75 284.823 1304.78 345.528 1309.82C351.262 1322.24 357.101 1334.61 363.017 1346.95C361.791 1344.82 360.39 1342.78 358.814 1340.85M151.771 1379.66C150.66 1364.16 153.439 1344.87 165.674 1333.33C193.678 1311.11 232.889 1304.12 267.882 1296.08C284.183 1293.06 300.706 1291.05 317.296 1290.05C323.182 1289.62 330.658 1290.87 334.815 1286.35C336.955 1291.11 339.124 1295.86 341.295 1300.61C271.628 1292.05 126.28 1321.8 166.984 1411.35C158.364 1402.58 152.654 1391.92 151.771 1379.66M497.889 1328.44C501.094 1335.95 505.015 1343.11 510.14 1349.65C504.315 1353.23 499.564 1358.51 496.214 1364.19C474.743 1416.9 451.779 1388.67 423.25 1360.38C447.394 1351.83 479.372 1345.43 497.889 1328.44M140.503 1368.93C84.6704 1317.18 73.8359 1230.97 94.4618 1163.2C96.2967 1138.07 105.662 1114.13 114.052 1090.33C140.769 1018.16 175.907 948.727 218.05 883.169C270.334 896.645 322.527 910.479 374.933 923.513C382.15 924.984 389.376 927.89 396.785 928.312C399.434 929.896 402.092 931.641 404.848 933.174C400.835 951.619 404.536 970.45 405.472 989.007C406.324 1003.62 404.642 1017.92 402.578 1032.38C400.272 1053.4 390.777 1121.8 409.804 1134.32C416.253 1137.24 422.017 1128.59 424.796 1130.97C427.301 1129.33 429.638 1127.19 431.542 1124.84C438.889 1147.14 450.896 1167.82 458.312 1190.13C468.179 1222.93 500.584 1276.01 493.389 1307.29C487.823 1326.6 463.474 1330.77 445.902 1337.08C425.595 1343.71 405.061 1349.8 384.191 1354.74C374.004 1334.45 364.266 1313.97 354.711 1293.42C311.038 1198.58 272.359 1101.76 237.792 1003.79C237.145 1001.62 229.196 978.058 227.742 984.63C227.62 983.955 226.714 982.209 226.372 983.701C232.234 1006.71 238.18 1029.7 244.614 1052.58C228.808 1050.5 211.814 1049.7 197.348 1056.96C196.601 1057.34 197.15 1058.26 197.887 1058.15C215.019 1055.36 231.541 1060.62 247.995 1064.4C271.103 1138.21 300.919 1210.14 332.478 1281.17C322.717 1278.25 311.388 1281.48 301.2 1281.71C269.116 1284.83 237.396 1291.41 207.086 1301.66C168.986 1313.25 142.048 1328.36 140.503 1368.93M109.765 830.349C100.385 820.87 93.0144 808.766 94.439 795.923C100.073 788.872 101.939 779.675 105.22 771.525C118.049 737.423 129.958 703.061 143.921 669.326C173.623 677.897 202.844 688.178 230.407 701.682C235.478 704.11 240.495 706.629 245.452 709.24C250.645 711.971 256.309 716.714 262.537 715.355C255.731 724.398 241.714 733.807 239.346 744.256C238.835 747.564 241.333 750.632 245.17 749.893C305.236 789.928 367.266 829.117 424.042 873.711C466.558 905.294 499.198 930.909 513.779 982.153C523.608 1015.35 523.638 1050.04 522.192 1084.17C521.911 1090.81 521.903 1097.6 521.332 1104.28C522.185 1109.27 520.563 1119.44 514.578 1119.62C514.715 1120.83 515.142 1121.95 515.819 1122.94C515.629 1123.18 515.431 1123.4 515.226 1123.63C514.929 1122.27 514.639 1120.91 514.365 1119.55C509.706 1100.18 509.081 1077.71 509.858 1057.09C510.184 1051.18 500.523 1051.32 499.983 1057.09C498.528 1072.68 497.074 1088.27 495.62 1103.85C493.876 1113.94 496.625 1127.15 488.021 1134.83C479.273 1127.24 482.166 1112.28 482.593 1102.49C483.277 1086.53 484.016 1070.57 484.648 1054.6C484.846 1049.54 475.915 1048.24 474.902 1053.38C472.032 1068.05 468.926 1082.67 465.583 1097.25C463.566 1102.89 462.18 1128.18 452.099 1123.79C446.092 1119.94 450.424 1097.37 449.632 1089.9C450.005 1075.11 450.225 1060.34 451.384 1045.58C451.856 1039.63 441.524 1038.36 440.107 1044.17C437.808 1053.58 435.608 1062.99 433.613 1072.46C429.235 1088.43 430.826 1110.07 415.02 1120.69C408.83 1079.21 417.737 1038.02 418.987 996.692C418.24 983.3 415.789 970.042 413.626 956.813C411.236 942.182 409.842 926.257 415.439 912.148C413.908 905.829 407.893 922.922 407.33 924.343C402.8 915.969 391.767 915.322 383.042 912.711C363.649 906.821 343.785 902.381 324.164 897.145C272.13 883.584 220.036 870.235 167.928 856.914C147.112 851.509 125.199 845.113 109.765 830.349M630.819 1050.97C623.639 1014.45 623.837 977.452 626.905 940.536C630.278 883.282 633.552 826.014 637.055 768.767C652.26 872.381 668.469 975.876 680.864 1079.82C681.747 1087.06 681.611 1094.71 685.502 1101.16C664 1103.87 641.082 1106.59 620.175 1099.73C629.349 1084.85 632.585 1067.9 630.819 1050.97M739.461 793.77C755.716 891.973 746.443 991.9 762.211 1089.99C740.336 1092.29 718.629 1095.7 696.982 1099.44C699.351 1087.32 694.859 1074.81 694.082 1062.61C682.326 975.573 669.345 888.595 652.145 802.32C647.926 781.673 643.663 761.111 638.775 740.576C639.514 728.142 640.161 715.707 640.587 703.265C664.457 689.184 691.372 680.071 719.208 675.476C726.73 714.799 734.245 754.095 739.461 793.77M551.285 485.179C550.333 483.652 549.427 482.089 548.559 480.506C551.498 480.612 554.361 480.71 557.254 481.16C557.125 485.531 557.383 489.936 557.437 494.341C555.989 491.118 553.158 488.176 551.285 485.179M1042.24 1100.58C972.81 1053.21 858.769 1083.39 778.337 1088.26C763.003 993.911 769.261 898.025 754.97 803.523C741.806 709.113 727.926 613.388 694.867 522.933C681.223 487.958 657.62 477.572 618.759 477.853C599.039 477.128 578.184 474.166 559.02 474.587C554.818 474.651 550.424 475.172 546.633 476.762C541.303 465.489 538.41 453.385 536.948 441.19C536.857 440.416 535.806 440.275 535.494 441.014C530.986 451.633 530.507 463.223 532.957 474.342C534.732 482.308 545.293 513.658 557.559 501.392C558.532 527.113 552.51 557.83 525.657 571.179C478.732 590.376 413.869 572.896 386.689 532.151C381.435 524.009 376.905 515.346 371.088 507.529C411.616 496.762 434.366 451.196 424.819 416.497C418.918 443.484 408.159 473.638 381.367 488.754C283.802 488.549 202.685 530.244 156.85 610.551C147.881 622.212 139.589 634.329 131.99 646.659C127.901 654.907 115.925 666.377 126.09 674.343C114.349 703.744 103.933 733.553 92.9238 763.187C89.9003 773.06 82.987 783.418 84.3658 793.798C82.8735 800.195 82.9421 807.76 86.3607 813.91C89.6042 824.874 96.8822 839.624 108.951 844.275C119.192 853.05 132.143 859.095 145.65 863.648C109.628 951.978 95.916 1047.24 83.7111 1140.57C71.7489 1222.21 65.5749 1321.52 140.526 1380.53C141.98 1397.41 152.654 1418.93 173.76 1419.11C188.378 1432.58 206.195 1425.19 222.466 1418.6C249.929 1409.06 278.732 1403.77 307.352 1400.82C310.421 1403.07 315.416 1402.7 318.149 1400.07C335.486 1396.32 359.515 1411.51 363.017 1397.75C385.372 1395.72 407.482 1391.9 429.814 1389.68C420.402 1401.14 421.08 1418.03 428.169 1430.41C410.117 1463.73 452.168 1483.03 477.88 1496.7C512.59 1515.56 548.841 1533.45 588.539 1541.27C623.44 1548.16 660.003 1546.07 693.678 1535.07C711.373 1530.89 736.088 1517.19 725.588 1497.89C738.897 1461.15 645.43 1423.09 617.936 1404.7C629.174 1403.38 629.586 1381.49 600.356 1394.07C596.823 1391.85 593.351 1389.57 589.917 1387.24C708.144 1374.49 933.934 1339.41 1019.5 1263.57C1066.51 1224.58 1093.63 1145.71 1042.24 1100.58" fill="black"/>
<path fill-rule="evenodd" clip-rule="evenodd" d="M503.042 144.066C548.562 144.066 595.645 178.608 612.331 200.65C626.36 219.182 633.913 302.983 633.913 359.617C633.913 371.461 640.59 393.789 638.641 405.119C631.501 446.636 600.394 481.455 538.825 481.455C477.257 481.455 433.113 457.563 387.351 393.418C365.147 393.418 354.386 376.748 354.23 350.441C354.073 324.135 375.662 314.563 375.662 314.563C375.662 314.563 367.965 210.746 387.351 183.717C406.737 156.688 457.521 144.066 503.042 144.066Z" fill="#EDB98A"/>
<path fill-rule="evenodd" clip-rule="evenodd" d="M483.886 129.387C512.626 126.538 540.79 128.932 569.113 133.885C571.278 134.269 572.504 135.658 572.961 137.329C586.301 137.926 599.657 138.884 612.981 139.598C617.816 139.857 620.557 144.534 618.352 148.757C617.912 149.596 617.454 150.413 616.989 151.229L617.573 151.04C621.581 149.781 625.911 149.161 629.816 151.159C634.787 153.702 636.736 159.313 635.637 164.477C635.356 165.795 634.884 167.059 634.347 168.292C635.437 168.221 636.535 168.245 637.625 168.386C643.43 169.139 647.743 173.495 648.047 179.295C648.496 188.053 642.732 196.938 635.942 203.208C636.927 205.195 637.305 207.533 636.895 209.904C636.077 214.589 632.552 217.395 628.465 219.225C630.169 224.524 630.975 230.063 630.499 235.724C630.34 237.614 628.652 239.175 626.87 239.558C633.513 257.463 636.875 276.687 639.293 295.418C641.017 308.745 641.866 322.15 641.97 335.578C642.02 341.64 641.918 347.71 641.659 353.773L641.554 356.047C641.233 362.601 641.217 369.483 640.014 375.966C644.119 382.801 645.771 391.286 646.468 398.945C647.334 408.426 645.963 418.205 642.908 427.224C631.379 461.3 596.587 482.805 561.641 488.394C529.293 493.566 491.863 486.604 472.959 457.839C472.662 457.384 473.295 457.008 473.664 457.306C487.189 468.074 502.877 472.877 519.922 475.215C549.392 479.25 582.517 472.406 606.166 454.261C617.518 445.55 625.704 432.867 629.304 419.218C631.14 412.241 631.773 404.965 631.051 397.785C630.313 390.501 627.019 384.286 624.943 377.403C624.245 375.079 624.983 372.92 626.434 371.383C626.842 365.794 627.805 360.159 628.173 354.588C628.582 348.253 628.831 341.92 628.919 335.578C629.087 322.424 628.526 309.247 627.396 296.149C625.328 272.164 619.836 248.761 616.613 224.979C615.42 226.027 613.709 226.457 611.917 225.542L611.731 225.443L610.753 224.894C610.697 224.894 610.633 224.902 610.576 224.909C603.882 225.545 596.94 224.635 590.526 222.68C583.815 220.64 577.587 217.501 572.023 213.318C570.965 218.567 570.523 223.873 570.516 229.225C570.508 232.569 566.893 234.304 564.022 232.876C551.3 226.549 539.146 219.259 527.61 211.065C526.262 217.823 524.916 224.579 523.56 231.344C523.04 233.951 519.648 235.003 517.476 233.763C508.834 228.841 501.371 222.398 495.294 214.737C494.081 217.009 492.864 219.28 491.639 221.546L489.794 224.94C487.974 228.276 485.537 231.965 481.553 233.032C477.336 234.162 473.816 231.487 472.398 227.75C471.965 226.589 471.564 225.395 471.195 224.195C467.603 232.224 463.547 240.073 458.961 247.56C452.083 258.79 443.825 268.797 435.592 279.062C433.091 282.179 428.81 279.204 428.465 276.175C428.265 274.393 428.096 272.604 427.951 270.822C423.154 280.299 418.148 289.688 412.694 298.805L413.475 301.8V301.8C415.725 310.652 417.594 319.566 419.626 328.464C420.281 331.335 418.723 335.44 415.297 335.929C411.203 336.513 407.33 338.56 403.137 337.152C398.565 335.615 397.662 331.747 395.504 328.08C395.073 327.349 394.572 326.678 394.033 326.041L393.896 326.215V326.215C393.56 326.647 392.758 326.177 392.958 325.682L393.193 325.111V325.111C391.339 323.184 389.12 321.577 387.08 319.848C382.231 319.048 376.777 319.924 373.436 321.852C365.828 326.246 362.334 335.303 362.262 343.631C362.174 353.379 365.259 364.335 370.47 372.67C372.764 376.335 375.906 379.646 380.058 381.272C384.18 382.888 388.645 382.386 392.838 383.908C395.612 384.921 397.32 387.935 395.644 390.665C395.532 390.855 395.403 391.027 395.282 391.208L396.529 392.828C397.387 393.95 398.282 395.152 399.115 396.403C401.248 398.805 403.493 401.12 405.665 403.483C409.681 407.838 413.578 412.312 417.529 416.73C421.258 420.898 425.202 424.814 429.267 428.667C433.107 432.317 437.901 435.385 441.428 439.279C444.859 443.077 445.79 449.708 440.145 451.907C433.9 454.345 428.372 448.631 424.169 444.822L423.992 444.662C416.286 437.72 409.327 429.787 403.801 421.053C398.327 424.701 390.41 425.049 384.959 421.402C382.091 419.483 379.89 416.258 378.821 412.75C377.812 412.971 376.804 413.101 375.821 413.086C375.316 413.373 374.808 413.652 374.295 413.913C370.23 415.984 365.236 415.059 363.376 410.655C361.682 406.658 363.428 402.117 364.953 398.266L365.268 397.47C366.134 395.273 367.088 392.879 368.274 390.627C364.971 388.194 362.149 385.172 359.76 381.735C351.736 370.159 347.727 353.229 349.499 339.417C350.565 331.082 354.565 322.449 361.114 316.828L360.875 316.216V316.216C359.039 311.657 357.371 307.081 356.289 302.263C355.022 296.628 354.404 290.788 353.844 285.051C352.657 272.934 352.978 260.541 354.557 248.47C357.524 225.749 365.044 203.444 378.392 184.538C374.607 180.103 371.609 174.884 373.172 168.88C373.886 166.125 375.513 163.512 377.967 161.934C379.321 161.064 380.933 160.93 382.288 160.208L382.695 159.988C383.29 159.648 382.835 159.685 382.48 158.105C381.077 151.794 382.24 145.696 389.335 143.601C396.013 141.631 402.33 145.814 406.282 150.798C416.624 143.616 430.253 139.857 442.238 136.663C455.867 133.044 469.847 130.785 483.886 129.387ZM372.179 341.056C372.13 335.916 377.108 332.745 382.008 333.586C385.297 334.146 388.041 336.068 390.618 338.055L391.875 339.028C395.013 341.439 398.615 344.039 400.486 347.454C403.227 352.492 397.432 359.272 392.021 355.741C388.309 353.305 385.929 349.403 383.494 345.778L383.242 345.404C382.136 343.78 381.166 342.053 379.65 340.75L379.322 340.47C378.824 340.054 378.289 339.674 377.646 339.495C376.404 339.145 374.105 339.635 373.558 341.081L373.509 341.229C373.308 341.96 372.187 341.802 372.179 341.056Z" fill="#B58143"/>
<path fill-rule="evenodd" clip-rule="evenodd" d="M568.205 424.324C562.597 425.926 556.578 426.069 550.862 424.415C545.677 422.914 540.353 419.611 536.538 415.241C533.148 411.359 530.952 406.641 531.039 401.605C531.048 401.03 531.257 400.55 531.578 400.177C531.923 399.776 532.405 399.5 532.922 399.381C533.453 399.258 534.015 399.301 534.493 399.516C534.926 399.71 535.297 400.039 535.529 400.521C536.116 401.281 536.7 402.029 537.286 402.757C542.001 408.5 546.567 412.791 553.658 414.331C557.505 415.166 561.347 414.796 564.872 413.521C568.645 412.157 572.057 409.758 574.73 406.688C575.938 405.301 577.364 404.735 578.759 404.725C580.339 404.715 581.901 405.439 583.078 406.597C584.235 407.735 585.009 409.281 585.079 410.899C585.141 412.318 584.671 413.801 583.422 415.125C579.308 419.483 573.975 422.676 568.205 424.324ZM568.032 352.399C573.78 355.845 582.539 363.881 576.355 372.426C569.076 379.959 558.596 371.321 553.431 367.415C548.642 364.387 543.262 372.174 547.705 375.709C585.024 402.962 600.169 353.3 570.939 348.346C567.721 347.801 566.526 351.332 568.032 352.399ZM514.258 337.234C512.41 336.068 510.237 335.668 507.828 336.749C505.946 337.593 502.645 340.408 500.347 344.108C498.775 346.639 497.661 349.609 497.893 352.702C497.946 353.42 497.677 353.95 497.253 354.341C496.918 354.651 496.433 354.878 495.865 354.949C495.382 355.009 494.841 354.955 494.402 354.82C493.566 354.562 493.123 354.027 492.957 353.591C491.348 349.377 492.041 344.674 493.844 340.432C496.277 334.707 500.696 329.911 503.591 328.365C508.545 325.718 514.389 325.596 519.35 328.293C523.573 330.588 526.213 334.293 528.84 338.069C529.398 338.872 529.952 339.669 530.525 340.452C531.672 342.021 531.787 343.577 531.342 344.911C530.85 346.389 529.594 347.637 528.024 348.29C526.573 348.893 524.889 348.978 523.399 348.358C522.14 347.834 520.985 346.813 520.254 345.081C519.023 342.164 516.971 338.945 514.258 337.234V337.234ZM608.093 343.724C606.828 344.374 605.838 344.571 604.435 344.156C603.658 343.926 602.891 343.485 602.291 342.893C601.695 342.305 601.266 341.575 601.099 340.765C600.688 338.766 599.579 336.895 597.999 335.675C596.649 334.633 594.944 334.08 593.053 334.392C591.012 334.728 589.068 336.019 587.729 337.54C587.282 338.05 586.931 338.628 586.578 339.202C585.919 340.277 585.278 341.275 584.368 342.064C584.023 342.364 583.503 342.572 583 342.572C582.795 342.572 582.588 342.539 582.39 342.478C580.359 340.468 579.968 338.943 580.034 337.43C580.102 335.843 580.737 334.237 581.761 332.739C584.165 329.223 588.729 326.341 591.809 325.688C596.026 324.794 600.215 325.867 603.573 328.191C607.029 330.581 609.589 334.293 610.387 338.476C610.579 339.484 610.498 340.571 610.109 341.514C609.729 342.435 609.066 343.224 608.093 343.724ZM523.56 299.753C521.029 302.185 518.033 302.562 515.002 302.897C513.318 303.085 511.974 303.237 510.651 303.531C507.015 304.341 503.421 305.56 500.142 307.316C496.714 309.151 492.979 311.365 490.292 314.201C489.653 314.876 489.05 315.584 488.447 316.294C487.897 316.941 487.367 317.564 486.809 318.165C486.168 318.855 485.559 319.578 484.953 320.299C484.578 320.908 484.504 321.058 484.429 321.213C484.315 321.448 484.183 321.71 484.032 321.991C483.826 322.376 483.584 322.797 483.331 323.179C482.909 323.878 482.683 324.07 482.488 324.156C482.163 324.299 481.856 324.369 481.557 324.331C481.277 324.295 481.014 324.163 480.754 323.946C479.454 322.863 479.071 321.085 479.11 319.199C479.17 316.336 480.24 313.166 481.227 311.218C483.522 306.691 486.704 301.984 490.531 298.605C494.897 294.748 499.675 291.828 505.162 289.816C508.571 288.565 512.519 287.417 516.234 287.562C518.908 287.666 521.461 288.45 523.569 290.408C524.864 291.61 525.485 293.32 525.485 295.028C525.485 296.77 524.84 298.523 523.56 299.753ZM613.241 322.027C613.08 322.287 612.857 322.466 612.609 322.574C612.35 322.687 612.059 322.72 611.781 322.673C611.504 322.627 611.24 322.503 611.031 322.314C610.831 322.132 610.679 321.892 610.61 321.597C608.93 314.317 605.667 308.9 598.702 305.408C595.276 303.689 591.337 302.598 587.607 301.727C586.524 301.474 585.379 301.31 584.225 301.144C580.611 300.624 576.971 300.028 574.615 297.146C573.195 295.41 572.599 293.19 572.936 291.16C573.253 289.249 574.385 287.496 576.444 286.446C581.569 283.832 587.938 286.397 593.114 288.581C593.497 288.744 593.874 288.903 594.243 289.056C599.304 291.163 603.92 293.945 607.715 297.923C610.726 301.078 613.515 305.744 614.639 310.543C615.573 314.536 615.354 318.612 613.241 322.027Z" fill="black"/>
</svg>
