<svg width="1351" height="1786" viewBox="0 0 1351 1786" fill="none" xmlns="http://www.w3.org/2000/svg">
<path fill-rule="evenodd" clip-rule="evenodd" d="M1284.62 1074.58C1295.93 1068.35 1306.97 1061.58 1317.84 1054.54C1325.49 1049.71 1318.71 1037.54 1310.87 1041.93C1306.85 1044.18 1302.86 1046.45 1298.84 1048.69C1302 1045.82 1304.93 1042.7 1307.55 1039.29L1307.37 1039.1C1317.49 1029.53 1304.49 1011.49 1292.99 1019.34C1282.84 1027.11 1272.6 1035.02 1260.96 1040.14C1236.84 1050.93 1210.23 1052.72 1184.34 1053.03C1174.87 1052.28 1165.82 1054.01 1156.62 1055.94C1160.23 1040.68 1169.25 1029.16 1174.03 1014.38C1177.56 999.456 1157.15 989.292 1149.92 1003.64C1148.15 1007.16 1146.45 1010.72 1144.8 1014.3C1129.17 1029.31 1103.06 1027.99 1087.29 1044.1C1078.31 1052.51 1073.92 1063.93 1072.18 1075.38C1071 1083.16 1072.84 1090.96 1068.38 1097.85C1046.83 1130.01 1012.79 1180.85 995.498 1216.25C983.256 1132.14 950.569 1028.1 916.8 951.189C905.633 926.592 892.858 902.557 876.088 881.707C877.989 874.754 871.28 862.412 867.013 866.211C853.88 849.279 830.666 844.896 811.999 836.479C786.801 825.107 765.895 801.47 755.618 774.605C742.413 723.446 709.908 716.947 664.827 719.208C621.683 719.151 589.762 738.626 580.348 784.979C561.224 820.16 516.069 814.342 483.583 823.655C459.774 829.396 436.669 838.271 414.711 849.537C390.283 825.082 302.796 927.716 294.844 954.129C299.525 955.087 304.178 956.24 308.789 957.644C312.895 958.897 311.171 965.444 307.029 964.396C301.875 963.089 296.688 962.19 291.477 961.566C291.318 962.092 291.179 962.615 291.075 963.131C290.49 963.089 289.906 963.037 289.321 962.995C290.618 963.708 291.866 964.535 293.083 965.601C296.024 968.178 292.195 973.152 289.07 971.099C286.126 968.773 282.27 969.141 278.739 968.36C278.529 976.024 252.618 967.45 248.593 964.911C230.705 962.549 212.303 965.083 195.603 955.978C173.383 951.04 150.997 945.579 129.026 939.289C123.21 941.682 117.744 950.245 122.363 956.529C124.962 959.389 121.622 964.058 118.35 962.025C107.376 955.208 98.8895 944.567 91.6944 933.103C88.3078 929.497 82.2961 930.273 77.7459 928.776C77.1377 929.93 76.7789 931.216 76.7844 932.534C57.4832 935.887 71.2518 958.136 80.9549 965.068C75.8075 968.605 75.6121 975.532 76.0625 981.316C74.9719 983.377 74.6076 985.931 75.5569 988.24C79.1865 997.067 87.0361 1004.5 93.0047 1011.65C99.5949 1019.55 105.471 1027.49 113.489 1033.9C144.053 1058.48 180.937 1072.23 218.776 1077.61C232.211 1079.79 251.536 1083.12 259.855 1095.11C257.814 1109.34 254.066 1122.99 250.667 1136.86C245.912 1155.28 246.236 1174.56 246.173 1193.34C245.508 1192.78 244.232 1192.89 244.042 1193.97C242.936 1201.75 242.114 1209.71 237.631 1216.25C233.701 1228.41 231.086 1241.39 229.617 1254.16C223.731 1314.74 222.326 1377.1 235.596 1436.74C240.717 1458.86 249.046 1479.88 260.394 1499.24C263.777 1505.02 269.217 1506.71 274.102 1505.58C290.45 1514.54 311.045 1517.41 328.666 1515.13C388.74 1497.19 367.808 1540.41 452.037 1527.17C597.425 1507.62 744.355 1546.04 889.434 1523.48C893.007 1552.61 939.783 1544.26 956.031 1531.94C1004.75 1493.72 1028.94 1372.7 1053.39 1311.31C1070.2 1262.92 1098.34 1177.22 1135.19 1144.75C1146.24 1135.62 1159.6 1130.82 1172.97 1126.94C1222.85 1113.38 1272.92 1100.55 1322.9 1087.36C1331.38 1085.16 1329.85 1069.9 1320.79 1070.88C1308.76 1072.18 1296.69 1073.35 1284.62 1074.58Z" fill="#EDB98A"/>
<path fill-rule="evenodd" clip-rule="evenodd" d="M174.185 1065.51C170.807 1065.06 167.496 1063.79 164.206 1062.79C159.184 1061.24 154.26 1059.44 149.414 1057.37C139.413 1053.15 129.71 1048.15 120.614 1042.03C105.922 1032.14 92.9402 1019.46 83.1488 1004.2L82.4766 1003.14C76.8868 994.151 66.5757 974.197 78.1373 967.375C70.6858 960.804 63.6431 949.002 64.0405 939.891C64.6034 927.006 79.572 927.182 87.3101 932.645C92.3769 936.221 96.1742 941.231 99.9826 946.16C104.199 951.635 108.703 956.854 113.384 961.875C114.625 963.203 115.88 964.505 117.156 965.786L118.439 967.06C118.241 966.559 118.064 966.047 117.909 965.521C115.326 957.029 118.406 945.973 126.453 942.082C131.378 939.699 136.492 941.154 141.265 943.176L141.996 943.492C148.421 946.298 154.922 948.781 161.612 950.773C188.878 958.893 217.335 960.245 245.274 964.299C256.037 965.872 266.999 967.851 277.706 970.764C281.79 952.461 291.802 934.917 302.665 920.482C354.679 851.43 440.461 828.608 518.935 813.835C526.088 812.495 532.017 822.491 536.178 820.126C544.071 815.652 551.014 809.314 557.108 802.429C570.1 787.738 579.318 770.46 590.147 754.092C595.5 746.006 607.82 753.241 602.852 761.921L600.419 766.162C590.399 783.537 579.304 801.443 564.934 814.918C557.295 822.071 548.818 827.722 539.126 831.251C531.785 833.92 521.486 836.168 513.45 833.581L512.485 832.098C512.804 832.594 513.126 833.088 513.449 833.582C534.423 865.655 560.739 892.8 588.468 918.419C616.458 944.264 646.652 967.408 677.028 990.037L679.56 991.922C729.046 953.826 770.85 904.137 800.18 847.365C794.032 846.584 787.95 842.426 782.695 839.325C776.37 835.575 770.42 831.1 765.784 825.135C755.684 812.145 756.997 795.403 755.176 779.641C755.065 778.662 756.291 778.417 756.854 778.907C762.329 783.707 764.25 791.571 766.535 798.363C769.051 805.831 771.899 811.983 777.673 817.236C783.049 822.131 789.606 825.729 795.975 828.933C799.26 830.577 815.565 834.802 817.423 838.301C845.594 831.322 873.036 843.38 893.911 863.722C914.078 883.376 928.881 908.925 941.951 934.148C955.893 961.06 967.318 989.113 977.165 1017.95C987.144 1047.21 994.794 1077.12 998.999 1107.92C1002.55 1133.89 1004.73 1160.27 1006.13 1186.53L1006.31 1189.82C1027.15 1155.29 1048.51 1121.14 1070.31 1087.28C1065.35 1073.31 1070.84 1059.05 1080.12 1048.26C1090.41 1036.32 1104.64 1030.78 1118.25 1024.32L1120.04 1023.47C1126.6 1020.31 1133.14 1016.83 1138.8 1012.1C1144.26 1007.53 1148.26 1001.24 1154 997.036C1162.35 990.908 1177.5 992.213 1177.88 1005.6C1178.08 1012.95 1175.09 1021.01 1172.35 1027.62C1169.25 1035.09 1165.07 1041.86 1160.1 1048.08C1159.87 1048.37 1159.62 1048.6 1159.36 1048.78L1159.17 1048.9C1166.04 1050.1 1172.96 1051.07 1180.01 1051.41C1194.24 1052.1 1208.62 1050.99 1222.56 1047.82C1236.82 1044.58 1250.64 1039.32 1263.47 1031.98C1274.43 1025.71 1284.58 1017.6 1297.03 1015.69C1298.18 1015.5 1299.34 1015.39 1300.53 1015.32C1302.52 1015.2 1304.51 1017.67 1303.72 1019.74C1303.29 1020.88 1302.84 1022.01 1302.34 1023.16C1298.04 1033.16 1291.44 1042.87 1283.2 1050.24L1282.56 1050.8C1285.47 1049.74 1288.32 1048.55 1291.14 1047.21C1307.69 1039.35 1322.7 1027.47 1340.44 1022.69C1341.28 1022.46 1342.13 1022.25 1342.98 1022.05C1348.46 1020.8 1351.36 1027.09 1348.13 1031.4C1347.61 1032.1 1347.09 1032.79 1346.55 1033.48C1338.64 1043.85 1329.91 1053.47 1320.28 1062.11C1316.98 1065.07 1313.58 1067.94 1310.11 1070.68C1308.65 1071.84 1307.19 1072.98 1305.7 1074.09L1304.97 1074.64C1306.7 1073.35 1308.41 1072.03 1310.11 1070.68C1320.98 1067.21 1331.68 1063.09 1342.16 1058.54C1346.32 1056.73 1349.56 1061.18 1350 1064.84C1351.48 1077.1 1338.58 1085.96 1330.19 1091.86C1321.78 1097.78 1312.52 1102.27 1303.04 1105.89C1284.81 1112.84 1265.66 1116 1246.54 1118.83L1237.25 1120.19C1200.5 1125.62 1162.11 1132.1 1135.74 1162.29C1120.95 1179.2 1110.95 1200.22 1101.8 1220.9C1092.66 1241.55 1084.64 1262.76 1077.02 1284.08C1069.13 1306.14 1062.25 1328.62 1054.94 1350.9C1048.23 1371.37 1040.22 1391.57 1032.28 1411.57L1031.02 1414.72C1014.17 1457.23 994.032 1497.26 965.971 1532.74C961.346 1538.6 953.873 1530.29 958.145 1524.48C987.497 1484.55 1007.92 1437.42 1024.77 1390.41C1032.45 1369.02 1038.87 1347.12 1046.24 1325.61L1050.63 1312.83C1056.49 1295.8 1062.4 1278.79 1068.57 1261.9C1076.37 1240.52 1084.95 1219.39 1094.76 1198.96L1095.8 1196.81C1105.41 1177.09 1116.82 1157.67 1132.53 1142.75C1160.81 1115.88 1198.44 1109.44 1234.82 1104.33L1246.27 1102.74C1261.65 1100.58 1277.08 1098.2 1292.03 1093.86C1300.67 1091.37 1309.1 1088.18 1317.02 1083.77C1320.18 1082.03 1323.26 1080.1 1326.24 1078.01C1317.74 1080.64 1309.12 1082.79 1300.35 1084.48C1296.05 1085.31 1291.8 1085.93 1287.56 1086.36C1276.65 1087.5 1265.82 1087.45 1254.63 1086.84C1253.68 1086.78 1253.38 1085.21 1254.39 1085.01C1262.18 1083.55 1269.98 1081.72 1277.74 1079.74L1280.07 1079.14C1280.11 1077.77 1280.62 1076.33 1281.68 1074.95C1285.54 1069.99 1292.88 1067.45 1297.97 1063.94C1303.3 1060.27 1308.47 1056.31 1313.39 1052.07C1317.9 1048.19 1322.22 1044.09 1326.39 1039.81L1327.63 1038.51C1327.22 1038.94 1326.8 1039.38 1326.39 1039.8C1315.15 1045.28 1304.5 1052.31 1292.76 1056.64C1283.43 1060.1 1273.65 1062.43 1263.79 1063.26L1263.17 1063.31L1262.56 1063.35C1252.26 1064.13 1241.9 1063.82 1231.75 1066.17C1230.61 1066.44 1230.26 1064.83 1231.28 1064.38C1240.14 1060.48 1249.36 1058.98 1258.67 1057.16C1258.87 1056.39 1259.38 1055.71 1260.26 1055.26L1262.65 1054.06C1269.75 1050.47 1276.36 1046.83 1282.26 1040.99C1287.47 1035.83 1291.81 1029.8 1295.07 1023.11C1282.03 1026.13 1270.58 1036.55 1258.73 1042.41C1245.81 1048.81 1232.15 1053.4 1218.11 1056.01L1216.51 1056.3C1190.27 1060.92 1158.71 1060.33 1135.21 1045.93C1134.46 1045.47 1135 1044.41 1135.77 1044.53C1142.44 1045.69 1149.04 1047.05 1155.64 1048.26C1154.35 1047.02 1153.77 1044.78 1155.26 1042.99C1161.19 1035.81 1165.88 1027.62 1168.88 1018.65L1169.45 1016.9C1170.83 1012.74 1173.16 1006.28 1170.78 1002.52C1168.51 998.947 1163.16 999.436 1159.95 1000.95C1153.3 1004.12 1148.87 1012.03 1143.26 1016.81C1137.15 1022.03 1130.19 1025.89 1123.07 1029.35L1121.57 1030.08C1109.26 1035.92 1096.1 1040.84 1086.41 1051.16C1081.2 1056.71 1076.72 1063.64 1075.22 1071.41C1074.54 1074.98 1074.54 1078.65 1075.44 1082.18C1076.16 1084.94 1077.66 1086.64 1076.8 1089.45C1075.67 1093.07 1071.69 1097.4 1069.64 1100.63C1067.25 1104.36 1064.88 1108.1 1062.5 1111.84C1057.77 1119.32 1053.06 1126.82 1048.34 1134.31C1038.91 1149.32 1029.59 1164.39 1020.34 1179.52C1017.33 1184.44 1014.33 1189.37 1011.34 1194.3L1006.86 1201.71L1004.49 1205.61L1000.46 1212.31C1000.6 1212.93 1000.59 1213.58 1000.4 1214.15C999.713 1216.22 998.424 1217.63 996.823 1218.66L996.537 1218.84C972.981 1258.13 949.799 1297.69 926.386 1337.08C925.139 1349.1 923.969 1361.13 922.953 1373.17C920.646 1400.41 919.067 1427.72 918.56 1455.06C918.317 1468.29 919.321 1481.61 919.862 1494.83C920.127 1501.14 920.489 1507.45 920.963 1513.75L921.311 1518.22C921.778 1524.35 922.042 1530.45 919.951 1536.3C918.096 1541.43 912.444 1542.59 909.099 1538.67C865.463 1536.82 821.794 1535.41 778.125 1534.54C699.96 1532.95 621.761 1533.2 543.585 1534.79C504.32 1535.6 465.045 1536.73 425.791 1538.13C406.451 1538.8 387.1 1539.76 367.749 1540.04C357.323 1540.19 340.915 1536.18 340.074 1523.8L340.053 1523.42C338.75 1523.8 337.404 1524.1 336.024 1524.32C335.41 1524.42 334.819 1524.39 334.275 1524.26L334.004 1524.18C318.463 1529.18 298.804 1522.05 284.036 1517.89L282.817 1517.55C268.721 1513.67 257.395 1508.13 248.156 1495.8C231.984 1474.21 226.465 1445.23 223.595 1418.51C220.901 1393.37 220.747 1367.76 224.025 1342.67C222.093 1322.22 223.981 1301.12 226.177 1280.79C227.259 1270.74 228.529 1260.7 230.052 1250.7C230.902 1245.12 232.017 1239.6 233.154 1234.09C233.608 1231.88 233.986 1229.51 234.561 1227.22L234.821 1226.25C233.055 1226.49 231.123 1226.08 229.257 1225C224.82 1222.43 223.528 1217.22 223.451 1212.23C223.208 1197.2 224.908 1181.74 226.409 1166.81C227.921 1151.89 229.997 1136.92 232.712 1122.2L233.415 1118.4C235.473 1107.38 237.827 1096.01 241.974 1085.66C226.398 1082.87 210.867 1079.89 195.755 1074.84C188.381 1072.36 181.118 1069.27 174.185 1065.51ZM987.143 1221.91C986.901 1221.97 986.669 1222.04 986.437 1222.11C980.211 1223.95 973.919 1225.51 967.649 1227.19C956.809 1230.07 946.212 1233.28 936.133 1238.28C934.022 1266.4 930.892 1294.44 927.917 1322.48L927.324 1328.09C931.894 1319.15 936.575 1310.27 941.465 1301.5C956.356 1274.76 971.59 1248.23 987.143 1221.91ZM238.618 1224.7C238.651 1228.04 237.989 1231.51 237.636 1234.73C237.062 1239.95 236.598 1245.19 236.013 1250.41C234.821 1260.89 233.805 1271.39 233.066 1281.92C232.591 1288.65 232.282 1295.39 232.006 1302.14C238.265 1277.45 246.555 1253.3 254.437 1229.11C253.119 1228.96 251.773 1228.62 250.383 1228.24L248.045 1227.57C246.666 1227.2 242.192 1226.03 238.618 1224.7ZM1006.86 1201.71L1006.9 1202.82C1007.07 1206.74 1004.84 1208.96 1002.13 1209.53C1003.7 1206.92 1005.28 1204.31 1006.86 1201.71ZM290.666 1015.63C297.256 1016.25 303.713 1017.73 309.873 1020.29L310.467 1020.54C315.023 1022.39 321.684 1024.72 323.175 1029.86C323.594 1031.31 322.468 1032.51 321.177 1032.63C316.231 1033.05 310.403 1027.46 305.822 1025.57C300.722 1023.47 295.379 1021.91 289.97 1021.08C277.817 1019.21 265.144 1020.63 253.708 1025.3C253.035 1025.58 252.615 1024.45 253.222 1024.11C264.747 1017.49 277.563 1014.41 290.666 1015.63ZM151.015 1048.95C150.253 1048.24 149.491 1047.49 148.741 1046.75C142.822 1040.84 137.581 1033.94 133.701 1026.37L132.68 1024.32C129.519 1017.86 125.638 1008.66 133.066 1004C137.503 1001.22 142.846 1001.92 147.791 1003.61C148.111 1003.71 148.431 1003.83 148.752 1003.94C150.959 1004.76 153.09 1005.74 154.988 1006.67C163.234 1010.67 170.509 1016.48 178.126 1021.61C186.379 1027.17 194.528 1030.72 204.053 1032.8L204.95 1032.99C213.891 1034.85 223.583 1036.05 229.82 1043.81C231.388 1045.77 229.952 1049.44 227.248 1048.47C210.006 1042.33 191.758 1040.98 175.929 1030.9C169.372 1026.73 163.168 1021.95 156.468 1018C152.913 1015.9 149.243 1014.06 145.332 1012.8L143.196 1012.14C141.944 1011.75 140.45 1011.37 139.446 1011.75C137.534 1012.45 138.144 1013.53 138.736 1015.42L138.795 1015.61C143.442 1030.78 156.688 1043.47 168.964 1051.87C171.778 1053.81 174.659 1055.58 177.596 1057.22C197.472 1068.4 219.711 1073.61 241.554 1079.79C241.554 1079.79 254.183 1083.51 258.367 1084.9C263.025 1084.49 268.334 1086.23 271.845 1088.31C275.256 1090.32 278.004 1093.02 280.08 1096.2C280.08 1096.2 282.078 1097.96 282.442 1100.69C283.491 1103.22 284.197 1105.94 284.55 1108.79C284.749 1110.45 284.352 1111.73 283.601 1112.64C285.859 1149.22 276.499 1185.58 265.946 1220.34L264.9 1223.77L264.228 1225.94C252.847 1262.79 239.788 1299.38 233.96 1337.8C230.063 1363.46 230.185 1390.03 233.044 1415.81L233.245 1417.59C236.062 1441.96 241.482 1469.31 256.17 1488.93C263.661 1498.94 272.537 1503.39 283.885 1506.61L284.506 1506.79C294.772 1509.64 305.369 1513.68 315.956 1514.91C325.78 1516.04 334.015 1512.18 342.857 1508.57L342.868 1508.56C361.49 1491.16 369.946 1465.84 376.194 1440.27C392.388 1374.12 390.379 1305.46 381.194 1238.34C376.404 1203.27 369.891 1168.51 363.4 1133.75C360.155 1116.38 356.655 1099.05 353.752 1081.62L352.028 1071.36C351.076 1065.66 350.156 1059.96 349.37 1054.23C348.31 1046.53 347.99 1038.95 347.626 1031.21C338.706 1015.61 325.758 1002.76 310.756 993.541C300.016 986.936 288.646 982.357 276.911 979.037C243.365 969.495 206.793 970.171 173.037 962.831C161.697 960.368 150.932 956.712 140.174 952.33L138.706 951.728C133.772 949.701 128.738 948.571 126.288 954.711C124.544 959.08 125.581 963.623 128.198 967.293C134.611 976.287 147.504 980.458 157.207 983.697C163.047 985.654 169.008 987.204 175.035 988.357C181.062 989.51 187.111 989.802 192.896 992.05C195.125 992.912 195.567 996.652 192.896 997.315C185.566 999.122 178.192 997.572 170.906 996.07C162.903 994.402 155.022 992.039 147.361 989.044C145.948 988.495 144.485 987.915 142.996 987.299L141.875 986.83C143.034 987.717 144.193 988.591 145.363 989.465C145.672 989.696 145.484 990.314 145.076 990.162C127.063 983.07 110.673 970.273 97.9761 955.133L97.3443 954.374C92.8736 948.967 82.6849 932.61 74.0968 937.165C66.0323 941.437 79.7794 957.907 85.0037 964.64L85.6104 965.43C91.5492 965.593 97.3004 969.494 102.113 972.64C110.47 978.105 119.201 982.812 128.098 987.215C145.783 995.987 164.559 1002.17 182.056 1011.39C182.288 1011.52 182.111 1011.83 181.89 1011.8C170.752 1009.92 159.735 1006.93 148.973 1003.21L148.493 1003.05L148.012 1002.88C141.29 1000.55 134.655 997.922 128.132 995.114C120.879 991.992 113.792 988.486 106.915 984.513C100.689 980.925 93.779 974.459 86.5597 973.503C85.787 973.398 85.1026 973.386 84.5065 973.445C76.2165 974.178 83.0716 988.671 85.3897 993.005C89.176 1000.12 93.746 1006.69 98.9894 1012.69C109.62 1024.88 122.502 1034.54 136.444 1042.05C141.202 1044.62 146.07 1046.88 151.015 1048.95Z" fill="#272C2E"/>
<path fill-rule="evenodd" clip-rule="evenodd" d="M677.259 297.387C739.806 297.387 820.542 338.883 827.426 381.383C835.54 431.467 878.986 623.649 869.175 685.278C859.364 746.908 806.497 791.274 721.9 791.274C637.303 791.274 574.161 742.481 559.663 725.727C545.165 708.974 518.297 649.16 518.297 649.16C518.297 649.16 473.002 642.788 472.787 603.738C472.573 564.687 502.236 550.48 502.236 550.48C502.236 550.48 491.66 396.369 518.297 356.247C544.934 316.124 614.713 297.387 677.259 297.387Z" fill="#EDB98A"/>
<path fill-rule="evenodd" clip-rule="evenodd" d="M747.809 713.794C739.677 716.279 730.948 716.502 722.659 713.935C715.141 711.606 707.421 706.481 701.888 699.7C696.973 693.677 693.789 686.356 693.914 678.542C693.928 677.65 694.231 676.905 694.696 676.327C695.197 675.704 695.896 675.277 696.645 675.091C697.416 674.9 698.23 674.968 698.924 675.301C699.552 675.602 700.089 676.113 700.426 676.86C701.276 678.039 702.123 679.201 702.974 680.33C709.811 689.24 716.432 695.899 726.714 698.288C732.292 699.584 737.863 699.009 742.975 697.032C748.447 694.915 753.394 691.193 757.27 686.43C759.022 684.278 761.09 683.399 763.112 683.384C765.404 683.367 767.669 684.491 769.376 686.288C771.053 688.053 772.176 690.453 772.278 692.963C772.367 695.166 771.687 697.467 769.875 699.52C763.908 706.282 756.176 711.236 747.809 713.794ZM747.558 602.193C755.893 607.541 768.594 620.01 759.627 633.267C749.072 644.957 733.874 631.554 726.385 625.492C719.441 620.795 711.639 632.877 718.082 638.362C772.198 680.648 794.159 603.591 751.774 595.906C747.107 595.059 745.374 600.539 747.558 602.193ZM669.581 578.663C666.901 576.854 663.75 576.234 660.257 577.911C657.528 579.221 652.74 583.588 649.409 589.329C647.129 593.256 645.513 597.864 645.85 602.663C645.928 603.778 645.537 604.6 644.922 605.207C644.436 605.687 643.734 606.04 642.909 606.15C642.209 606.244 641.425 606.159 640.788 605.95C639.575 605.55 638.934 604.72 638.692 604.043C636.359 597.504 637.364 590.208 639.979 583.626C643.507 574.742 649.914 567.301 654.112 564.902C661.296 560.795 669.771 560.606 676.964 564.79C683.088 568.351 686.917 574.1 690.726 579.96C691.535 581.205 692.339 582.442 693.169 583.657C694.833 586.091 694.999 588.505 694.354 590.576C693.64 592.869 691.82 594.805 689.543 595.818C687.439 596.754 684.997 596.886 682.836 595.924C681.011 595.111 679.335 593.527 678.275 590.839C676.49 586.312 673.515 581.318 669.581 578.663V578.663ZM805.65 588.734C803.816 589.743 802.38 590.047 800.345 589.403C799.219 589.046 798.107 588.362 797.236 587.443C796.373 586.532 795.75 585.399 795.508 584.143C794.912 581.041 793.304 578.138 791.013 576.245C789.054 574.627 786.582 573.77 783.84 574.253C780.881 574.775 778.062 576.777 776.121 579.139C775.472 579.929 774.963 580.826 774.452 581.717C773.495 583.384 772.565 584.934 771.246 586.158C770.746 586.623 769.992 586.946 769.263 586.946C768.966 586.946 768.665 586.895 768.378 586.801C765.433 583.681 764.867 581.314 764.962 578.967C765.061 576.506 765.981 574.013 767.467 571.688C770.952 566.233 777.57 561.761 782.036 560.748C788.152 559.361 794.226 561.026 799.096 564.631C804.106 568.341 807.819 574.1 808.977 580.591C809.255 582.154 809.137 583.841 808.573 585.304C808.022 586.734 807.061 587.958 805.65 588.734ZM683.069 520.507C679.399 524.281 675.055 524.866 670.66 525.386C668.218 525.677 666.269 525.912 664.35 526.369C659.078 527.625 653.866 529.517 649.111 532.242C644.141 535.09 638.725 538.525 634.828 542.925C633.901 543.973 633.028 545.071 632.153 546.173C631.355 547.177 630.587 548.143 629.777 549.075C628.847 550.146 627.964 551.268 627.086 552.387C626.543 553.332 626.435 553.564 626.326 553.806C626.161 554.169 625.97 554.576 625.751 555.012C625.452 555.609 625.101 556.263 624.733 556.856C624.122 557.94 623.794 558.238 623.511 558.372C623.041 558.593 622.595 558.702 622.162 558.643C621.756 558.587 621.374 558.382 620.996 558.045C619.112 556.365 618.556 553.607 618.613 550.68C618.7 546.238 620.252 541.32 621.683 538.296C625.011 531.272 629.625 523.969 635.174 518.726C641.506 512.741 648.433 508.21 656.39 505.088C661.335 503.148 667.06 501.366 672.447 501.591C676.324 501.753 680.026 502.97 683.083 506.007C684.96 507.872 685.861 510.525 685.861 513.176C685.861 515.879 684.925 518.599 683.069 520.507ZM813.115 555.068C812.882 555.471 812.559 555.75 812.199 555.917C811.822 556.092 811.402 556.142 810.998 556.071C810.596 555.999 810.214 555.807 809.911 555.513C809.62 555.231 809.399 554.858 809.3 554.4C806.863 543.104 802.132 534.7 792.033 529.281C787.065 526.615 781.352 524.921 775.944 523.57C774.373 523.178 772.712 522.924 771.04 522.666C765.799 521.858 760.52 520.933 757.103 516.462C755.044 513.769 754.18 510.325 754.669 507.175C755.129 504.209 756.771 501.489 759.756 499.859C767.188 495.804 776.423 499.783 783.928 503.173C784.485 503.425 785.032 503.672 785.566 503.91C792.906 507.179 799.599 511.495 805.102 517.667C809.468 522.564 813.513 529.802 815.142 537.249C816.497 543.444 816.178 549.769 813.115 555.068Z" fill="black"/>
<path fill-rule="evenodd" clip-rule="evenodd" d="M652.221 275.813C691.711 271.584 730.408 275.138 769.326 282.49C772.3 283.06 773.985 285.123 774.612 287.603C792.943 288.489 811.295 289.911 829.601 290.972C836.245 291.356 840.011 298.298 836.982 304.567C836.377 305.813 835.748 307.025 835.109 308.236L835.912 307.956C841.419 306.088 847.368 305.167 852.734 308.132C859.563 311.907 862.241 320.236 860.732 327.902C860.345 329.859 859.696 331.735 858.958 333.565C860.457 333.46 861.966 333.495 863.464 333.705C871.439 334.823 877.365 341.289 877.784 349.899C878.401 362.9 870.481 376.089 861.151 385.396C862.504 388.345 863.023 391.817 862.46 395.335C861.337 402.291 856.492 406.456 850.876 409.173C853.218 417.038 854.325 425.261 853.672 433.664C853.454 436.469 851.134 438.787 848.685 439.355C857.813 465.934 862.433 494.471 865.755 522.277C868.123 542.06 869.291 561.959 869.433 581.891C869.503 590.891 869.362 599.9 869.005 608.901L868.861 612.276C868.421 622.005 868.399 632.221 866.746 641.845C872.386 651.992 874.655 664.587 875.614 675.956C876.803 690.03 874.92 704.546 870.722 717.934C854.882 768.519 807.076 800.441 759.058 808.737C714.612 816.414 663.181 806.08 637.207 763.381C636.799 762.705 637.669 762.147 638.176 762.59C656.759 778.573 678.315 785.703 701.735 789.175C742.228 795.164 787.743 785.004 820.238 758.069C835.836 745.137 847.083 726.31 852.03 706.049C854.552 695.693 855.423 684.892 854.43 674.233C853.417 663.422 848.89 654.195 846.037 643.977C845.079 640.528 846.092 637.324 848.086 635.042C848.647 626.745 849.97 618.38 850.475 610.11C851.037 600.707 851.38 591.305 851.501 581.891C851.732 562.365 850.961 542.804 849.408 523.361C846.566 487.757 839.021 453.016 834.592 417.715C832.952 419.27 830.602 419.909 828.139 418.55L827.884 418.402L826.54 417.588C826.463 417.588 826.375 417.599 826.297 417.61C817.1 418.555 807.56 417.203 798.748 414.301C789.527 411.273 780.969 406.613 773.323 400.403C771.87 408.196 771.263 416.072 771.253 424.017C771.242 428.98 766.275 431.556 762.331 429.436C744.849 420.045 728.15 409.223 712.299 397.06C710.447 407.091 708.598 417.12 706.735 427.163C706.02 431.032 701.359 432.593 698.374 430.753C686.501 423.447 676.245 413.883 667.896 402.511C666.229 405.882 664.557 409.254 662.873 412.617L660.339 417.656C657.838 422.608 654.49 428.085 649.015 429.668C643.221 431.346 638.384 427.374 636.435 421.827C635.841 420.104 635.29 418.332 634.783 416.55C629.847 428.469 624.274 440.119 617.974 451.234C608.522 467.904 597.175 482.759 585.864 497.997C582.427 502.624 576.544 498.207 576.071 493.711C575.795 491.066 575.564 488.41 575.365 485.764C568.773 499.833 561.895 513.771 554.401 527.304L555.474 531.751V531.751C558.566 544.89 561.134 558.122 563.925 571.332C564.826 575.593 562.685 581.686 557.977 582.412C552.352 583.279 547.031 586.319 541.27 584.227C534.988 581.946 533.746 576.204 530.781 570.761C530.189 569.676 529.501 568.68 528.761 567.734L528.572 567.993V567.993C528.11 568.635 527.008 567.935 527.283 567.202L527.606 566.353V566.353C525.058 563.493 522.009 561.107 519.206 558.541C512.544 557.353 505.05 558.654 500.46 561.516C490.006 568.039 485.204 581.484 485.105 593.846C484.984 608.316 489.224 624.58 496.384 636.952C499.536 642.393 503.854 647.308 509.558 649.721C515.222 652.12 521.357 651.375 527.118 653.634C530.93 655.138 533.276 659.612 530.974 663.665C530.819 663.946 530.643 664.201 530.477 664.47L532.19 666.876C533.369 668.542 534.598 670.325 535.743 672.182C538.673 675.748 541.758 679.185 544.743 682.692C550.261 689.156 555.615 695.798 561.045 702.356C566.168 708.544 571.588 714.356 577.172 720.076C582.449 725.495 589.036 730.049 593.883 735.829C598.596 741.468 599.875 751.311 592.119 754.574C583.539 758.193 575.943 749.712 570.167 744.057L569.924 743.82C559.336 733.515 549.775 721.739 542.182 708.773C534.66 714.188 523.782 714.706 516.292 709.292C512.351 706.443 509.327 701.656 507.858 696.448C506.472 696.777 505.087 696.969 503.737 696.947C503.042 697.373 502.344 697.788 501.639 698.175C496.054 701.249 489.192 699.876 486.636 693.339C484.309 687.405 486.707 680.665 488.803 674.947L489.236 673.766C490.426 670.505 491.737 666.952 493.367 663.608C488.828 659.997 484.95 655.51 481.668 650.408C470.642 633.224 465.134 608.093 467.569 587.59C469.034 575.217 474.529 562.402 483.529 554.059L483.2 553.15V553.15C480.677 546.382 478.385 539.589 476.899 532.437C475.158 524.072 474.309 515.404 473.539 506.888C471.909 488.899 472.349 470.504 474.519 452.585C478.595 418.857 488.928 385.747 507.268 357.681C502.068 351.098 497.949 343.35 500.096 334.439C501.078 330.349 503.313 326.47 506.685 324.127C508.545 322.835 510.76 322.637 512.622 321.565L513.182 321.239C513.999 320.735 513.374 320.788 512.886 318.443C510.959 309.075 512.556 300.024 522.304 296.913C531.48 293.989 540.16 300.199 545.591 307.597C559.801 296.935 578.527 291.356 594.995 286.614C613.722 281.242 632.931 277.888 652.221 275.813ZM498.732 590.024C498.665 582.393 505.505 577.686 512.237 578.934C516.757 579.766 520.527 582.619 524.068 585.568L525.794 587.012C530.106 590.592 535.056 594.452 537.626 599.52C541.394 606.999 533.43 617.064 525.995 611.822C520.895 608.206 517.625 602.414 514.28 597.033L513.933 596.478C512.413 594.066 511.08 591.503 508.997 589.569L508.547 589.153C507.863 588.535 507.127 587.972 506.243 587.705C504.538 587.187 501.378 587.913 500.626 590.061L500.559 590.28C500.284 591.365 498.743 591.131 498.732 590.024Z" fill="#B58143"/>
</svg>
